{"glyphs":{"0":{"ha":878,"x_min":0,"x_max":0,"o":"m 574 243 l 574 732 l 306 732 l 306 243 m 38 700 l 339 975 l 840 975 l 840 274 l 540 0 l 38 0 "},"1":{"ha":456,"x_min":0,"x_max":0,"o":"m 418 975 l 418 0 l 149 0 l 149 732 l 14 732 l 14 975 "},"2":{"ha":756,"x_min":0,"x_max":0,"o":"m 779 701 l 361 243 l 717 243 l 717 0 l 38 0 l 38 256 l 476 732 l 292 732 l 296 610 l 38 610 l 38 975 l 479 975 "},"3":{"ha":731,"x_min":0,"x_max":0,"o":"m 754 701 l 546 488 l 693 342 l 693 0 l 29 0 l 29 244 l 453 244 l 228 488 l 453 732 l 268 732 l 272 610 l 14 610 l 14 975 l 456 975 "},"4":{"ha":785,"x_min":0,"x_max":0,"o":"m -37 475 l 478 1039 l 747 794 l 747 0 l 478 0 l 478 243 l 215 243 m 478 675 l 293 475 l 478 475 "},"5":{"ha":715,"x_min":0,"x_max":0,"o":"m 410 392 l 38 392 l 38 975 l 599 975 l 599 732 l 307 732 l 307 624 l 678 624 l 678 226 l 428 0 l 93 0 l 93 243 l 410 243 "},"6":{"ha":811,"x_min":0,"x_max":0,"o":"m 506 461 l 278 461 l 278 243 l 506 243 m 38 597 l 440 1036 l 633 882 l 428 675 l 774 675 l 774 274 l 472 0 l 38 0 "},"7":{"ha":760,"x_min":0,"x_max":0,"o":"m 797 701 l 451 336 l 451 0 l 182 0 l 182 410 l 481 732 l 268 732 l 272 610 l 14 610 l 14 975 l 497 975 "},"8":{"ha":824,"x_min":0,"x_max":0,"o":"m 518 392 l 304 392 l 304 243 l 518 243 m 518 610 l 518 732 l 304 732 l 304 610 m 38 388 l 161 501 l 38 501 l 38 749 l 288 975 l 786 975 l 786 614 l 661 501 l 786 501 l 786 226 l 536 0 l 38 0 "},"9":{"ha":797,"x_min":0,"x_max":0,"o":"m 292 514 l 519 514 l 519 732 l 292 732 m 760 378 l 357 -61 l 164 93 l 369 300 l 24 300 l 24 701 l 325 975 l 760 975 "}," ":{"ha":331,"x_min":0,"x_max":0,"o":""},",":{"ha":396,"x_min":0,"x_max":0,"o":"m 7 -61 l 131 244 l 389 244 l 265 -61 "},".":{"ha":344,"x_min":0,"x_max":0,"o":"m 307 0 l 38 0 l 38 244 l 307 244 "},":":{"ha":344,"x_min":0,"x_max":0,"o":"m 307 0 l 38 0 l 38 244 l 307 244 m 307 488 l 38 488 l 38 732 l 307 732 "},"=":{"ha":582,"x_min":0,"x_max":0,"o":"m 38 328 l 544 328 l 544 114 l 38 114 m 38 618 l 544 618 l 544 404 l 38 404 "},"a":{"ha":881,"x_min":0,"x_max":0,"o":"m 388 0 l 38 0 l 38 457 l 340 732 l 843 732 l 843 0 l 574 0 l 574 169 m 574 488 l 307 488 l 307 244 l 574 244 "},"b":{"ha":881,"x_min":0,"x_max":0,"o":"m 494 732 l 843 732 l 843 274 l 544 0 l 38 0 l 38 975 l 307 975 l 307 561 m 307 488 l 307 244 l 574 244 l 574 488 "},"c":{"ha":781,"x_min":0,"x_max":0,"o":"m 38 457 l 339 732 l 743 732 l 743 488 l 307 488 l 307 244 l 743 244 l 743 0 l 38 0 "},"d":{"ha":881,"x_min":0,"x_max":0,"o":"m 843 975 l 843 274 l 544 0 l 38 0 l 38 458 l 340 732 l 574 732 l 574 975 m 574 488 l 307 488 l 307 244 l 574 244 "},"e":{"ha":867,"x_min":0,"x_max":0,"o":"m 646 244 l 646 244 l 829 244 l 829 0 l 210 0 l 24 169 l 24 458 l 325 732 l 829 732 l 829 415 l 646 244 m 560 244 l 560 488 l 293 488 l 293 244 l 560 244 "},"f":{"ha":588,"x_min":0,"x_max":0,"o":"m 307 794 l 307 606 l 414 703 l 574 703 l 574 458 l 307 458 l 307 0 l 38 0 l 38 764 l 340 1039 l 574 1039 l 574 794 l 307 794 "},"g":{"ha":881,"x_min":0,"x_max":0,"o":"m 388 0 l 38 0 l 38 457 l 339 732 l 843 732 l 843 -65 l 578 -307 l 307 -310 l 307 -68 l 574 -65 l 574 171 l 574 171 m 574 488 l 307 488 l 307 244 l 574 244 "},"h":{"ha":881,"x_min":0,"x_max":0,"o":"m 307 561 l 496 732 l 843 732 l 843 0 l 574 0 l 574 488 l 307 488 l 307 0 l 38 0 l 38 975 l 307 975 l 307 561 "},"i":{"ha":344,"x_min":0,"x_max":0,"o":"m 307 0 l 38 0 l 38 732 l 307 732 m 307 1039 l 307 793 l 38 793 l 38 1039 "},"j":{"ha":344,"x_min":0,"x_max":0,"o":"m 38 -244 l 38 732 l 307 732 l 307 0 m 307 1039 l 307 793 l 38 793 l 38 1039 "},"k":{"ha":846,"x_min":0,"x_max":0,"o":"m 307 264 l 307 0 l 38 0 l 38 975 l 307 975 l 307 469 l 540 732 l 883 732 l 546 382 l 883 0 l 689 -168 "},"l":{"ha":344,"x_min":0,"x_max":0,"o":"m 307 975 l 307 0 l 38 0 l 38 975 "},"m":{"ha":1317,"x_min":0,"x_max":0,"o":"m 38 732 l 307 732 l 307 561 l 494 732 l 793 732 l 793 561 l 981 732 l 1279 732 l 1279 0 l 1010 0 l 1010 488 l 793 488 l 793 0 l 524 0 l 524 488 l 307 488 l 307 0 l 38 0 l 38 732 "},"n":{"ha":881,"x_min":0,"x_max":0,"o":"m 38 732 l 307 732 l 307 561 l 494 732 l 843 732 l 843 0 l 574 0 l 574 488 l 307 488 l 307 0 l 38 0 "},"o":{"ha":881,"x_min":0,"x_max":0,"o":"m 574 488 l 307 488 l 307 244 l 574 244 m 38 458 l 340 732 l 843 732 l 843 274 l 544 0 l 38 0 "},"p":{"ha":881,"x_min":0,"x_max":0,"o":"m 307 -243 l 38 -243 l 38 458 l 340 732 l 843 732 l 843 274 l 543 0 l 307 0 m 574 488 l 307 488 l 307 244 l 574 244 "},"q":{"ha":881,"x_min":0,"x_max":0,"o":"m 38 458 l 340 732 l 843 732 l 843 -243 l 574 -243 l 574 171 l 388 0 l 38 0 m 307 488 l 307 244 l 574 244 l 574 488 "},"r":{"ha":881,"x_min":0,"x_max":0,"o":"m 926 -165 l 735 -336 l 306 146 l 306 0 l 38 0 l 38 457 l 339 732 l 843 732 l 843 292 l 653 122 m 574 488 l 307 488 l 307 244 l 574 244 "},"t":{"ha":772,"x_min":0,"x_max":0,"o":"m 499 975 l 499 732 l 735 732 l 735 488 l 499 488 l 499 244 l 735 244 l 735 0 l 232 0 l 232 488 l -37 488 l 232 732 l 232 975 "},"v":{"ha":881,"x_min":0,"x_max":0,"o":"m 574 732 l 843 732 l 843 274 l 542 0 l 38 0 l 38 732 l 307 732 l 307 244 l 574 244 "},"w":{"ha":1317,"x_min":0,"x_max":0,"o":"m 1010 732 l 1279 732 l 1279 274 l 976 0 l 38 0 l 38 732 l 307 732 l 307 244 l 524 244 l 524 732 l 793 732 l 793 244 l 1010 244 "},"x":{"ha":915,"x_min":0,"x_max":0,"o":"m 306 732 l 457 544 l 610 732 l 953 732 l 629 365 l 951 0 l 760 -169 l 457 188 l 156 -169 l -37 0 l 288 365 l -37 732 "},"y":{"ha":881,"x_min":0,"x_max":0,"o":"m 574 171 l 388 0 l 38 0 l 38 732 l 307 732 l 307 244 l 574 244 l 574 244 l 574 732 l 843 732 l 843 -40 l 550 -307 l 307 -307 l 307 -61 l 574 -61 "},"|":{"ha":297,"x_min":0,"x_max":0,"o":"m 260 1039 l 260 -243 l 38 -243 l 38 1039 "},"„":{"ha":744,"x_min":0,"x_max":0,"o":"m 7 -61 l 131 244 l 389 244 l 265 -61 m 356 -61 l 479 244 l 738 244 l 614 -61 "},"…":{"ha":983,"x_min":0,"x_max":0,"o":"m 626 0 l 357 0 l 357 244 l 626 244 m 946 0 l 676 0 l 676 244 l 946 244 m 307 0 l 38 0 l 38 244 l 307 244 "},"•":{"ha":519,"x_min":0,"x_max":0,"o":"m 261 600 l 514 371 l 261 142 l 8 371 "},"·":{"ha":403,"x_min":0,"x_max":0,"o":"m 201 546 l 396 369 l 201 193 l 7 369 "},"˚":{"ha":403,"x_min":0,"x_max":0,"o":"m 226 918 l 175 918 l 175 867 l 226 867 m 7 943 l 150 1072 l 396 1072 l 396 857 l 292 761 l 7 761 "},"˘":{"ha":540,"x_min":0,"x_max":0,"o":"m 344 942 l 344 1039 l 533 1039 l 533 908 l 369 761 l 7 761 l 7 932 l 197 1103 l 197 942 "},"˙":{"ha":403,"x_min":0,"x_max":0,"o":"m 201 1089 l 396 913 l 201 736 l 7 913 "},"˝":{"ha":801,"x_min":0,"x_max":0,"o":"m 432 1039 l 265 793 l 7 793 l 174 1039 m 794 1039 l 628 793 l 369 793 l 536 1039 "},"ˇ":{"ha":682,"x_min":0,"x_max":0,"o":"m 399 793 l 188 793 l 7 951 l 156 1086 l 294 960 l 382 1039 l 675 1039 "},"˛":{"ha":378,"x_min":0,"x_max":0,"o":"m 371 -112 l 371 -307 l 7 -307 l 7 -71 l 208 110 l 208 -112 "},"ł":{"ha":572,"x_min":0,"x_max":0,"o":"m 610 649 l 379 393 l 379 0 l 111 0 l 111 221 l 8 314 l 111 428 l 111 978 l 379 978 l 379 725 l 444 799 "},"⁄":{"ha":835,"x_min":0,"x_max":0,"o":"m 613 -242 l -25 1039 l 219 1039 l 857 -242 "},"z":{"ha":721,"x_min":0,"x_max":0,"o":"m 139 149 l 438 488 l 14 488 l 14 732 l 454 732 l 756 460 l 460 156 l 758 -165 l 567 -335 "},";":{"ha":426,"x_min":0,"x_max":0,"o":"m 376 488 l 107 488 l 107 732 l 376 732 m 7 -61 l 131 244 l 389 244 l 265 -61 "},"‚":{"ha":396,"x_min":0,"x_max":0,"o":"m 7 -61 l 131 244 l 389 244 l 265 -61 "},"¡":{"ha":344,"x_min":0,"x_max":0,"o":"m 300 1039 l 300 794 l 31 794 l 31 1039 m 300 65 l 300 783 l 31 554 l 31 65 "},"¿":{"ha":718,"x_min":0,"x_max":0,"o":"m 499 975 l 499 731 l 229 731 l 229 975 m -37 272 l 369 721 l 563 565 l 265 244 l 450 244 l 436 407 l 704 407 l 704 0 l 263 0 "},"ı":{"ha":344,"x_min":0,"x_max":0,"o":"m 307 0 l 38 0 l 38 732 l 307 732 "},"Ł":{"ha":661,"x_min":0,"x_max":0,"o":"m 610 649 l 379 393 l 379 244 l 647 244 l 647 0 l 111 0 l 111 221 l 8 314 l 111 428 l 111 978 l 379 978 l 379 725 l 444 799 "},"ﬁ":{"ha":954,"x_min":0,"x_max":0,"o":"m 917 1039 l 917 793 l 647 793 l 647 1039 m 574 793 l 574 1039 l 307 1039 l 38 794 l 38 0 l 307 0 l 307 458 l 647 458 l 647 0 l 917 0 l 917 703 b 414 703 749 703 582 703 l 307 606 l 307 793 "},"ﬂ":{"ha":1197,"x_min":0,"x_max":0,"o":"m 307 606 l 414 703 l 574 703 l 574 458 l 307 458 l 307 0 l 38 0 l 38 794 l 307 1039 l 917 1039 l 917 244 l 1183 244 l 1183 0 l 647 0 l 647 793 l 307 793 "},"X":{"ha":915,"x_min":0,"x_max":0,"o":"m 306 732 l 457 544 l 610 732 l 953 732 l 629 365 l 951 0 l 760 -169 l 457 188 l 156 -169 l -37 0 l 288 365 l -37 732 "},"я":{"ha":881,"x_min":0,"x_max":0,"o":"m 228 122 l 38 292 l 38 732 l 542 732 l 843 457 l 843 0 l 575 0 l 575 146 l 146 -336 l -46 -165 m 307 244 l 574 244 l 574 488 l 307 488 "},"а":{"ha":881,"x_min":0,"x_max":0,"o":"m 388 0 l 38 0 l 38 457 l 340 732 l 843 732 l 843 0 l 574 0 l 574 169 m 574 488 l 307 488 l 307 244 l 574 244 "},"б":{"ha":881,"x_min":0,"x_max":0,"o":"m 307 561 l 494 732 l 843 732 l 843 275 l 540 0 l 224 0 l 38 169 l 38 794 l 307 1039 l 710 1039 l 710 793 l 307 793 m 307 488 l 307 244 l 574 244 l 574 488 "},"в":{"ha":881,"x_min":0,"x_max":0,"o":"m 531 810 l 307 810 l 307 626 l 531 626 m 574 244 l 574 465 l 307 464 l 307 244 m 540 0 l 224 0 l 38 169 l 38 794 l 307 1039 l 799 1039 l 799 768 l 643 626 l 843 626 l 843 275 "},"г":{"ha":722,"x_min":0,"x_max":0,"o":"m 38 0 l 38 458 l 339 732 l 708 732 l 708 488 l 307 488 l 307 0 "},"д":{"ha":881,"x_min":0,"x_max":0,"o":"m 388 0 l 38 0 l 38 457 l 339 732 l 843 732 l 843 -65 l 578 -307 l 307 -310 l 307 -68 l 574 -65 l 574 171 l 574 171 m 574 488 l 307 488 l 307 244 l 574 244 "},"е":{"ha":867,"x_min":0,"x_max":0,"o":"m 646 244 l 646 244 l 829 244 l 829 0 l 210 0 l 24 169 l 24 458 l 325 732 l 829 732 l 829 415 l 646 244 m 560 244 l 560 488 l 293 488 l 293 244 l 560 244 "},"ж":{"ha":1347,"x_min":0,"x_max":0,"o":"m 808 0 l 539 0 l 539 264 l 157 -168 l -37 0 l 300 382 l -37 732 l 306 732 l 539 469 l 539 732 l 808 732 l 808 469 l 1042 732 l 1385 732 l 1047 382 l 1385 0 l 1190 -168 l 808 264 "},"з":{"ha":721,"x_min":0,"x_max":0,"o":"m 139 149 l 438 488 l 14 488 l 14 732 l 454 732 l 756 460 l 460 156 l 758 -165 l 567 -335 "},"и":{"ha":881,"x_min":0,"x_max":0,"o":"m 843 0 l 574 0 l 574 171 l 386 0 l 38 0 l 38 732 l 307 732 l 307 244 l 574 244 l 574 732 l 843 732 "},"к":{"ha":846,"x_min":0,"x_max":0,"o":"m 307 264 l 307 0 l 38 0 l 38 975 l 307 975 l 307 469 l 540 732 l 883 732 l 546 382 l 883 0 l 689 -168 "},"й":{"ha":881,"x_min":0,"x_max":0,"o":"m 575 731 l 306 731 l 306 975 l 575 975 m 843 732 l 574 732 l 574 244 l 307 244 l 307 732 l 38 732 l 38 0 l 386 0 l 574 171 l 574 0 l 843 0 "},"л":{"ha":881,"x_min":0,"x_max":0,"o":"m 307 0 l 38 0 l 38 458 l 339 732 l 843 732 l 843 0 l 574 0 l 574 488 l 307 488 "},"м":{"ha":1317,"x_min":0,"x_max":0,"o":"m 307 0 l 38 0 l 38 458 l 340 732 l 1279 732 l 1279 0 l 1010 0 l 1010 488 l 793 488 l 793 0 l 524 0 l 524 488 l 307 488 "},"н":{"ha":881,"x_min":0,"x_max":0,"o":"m 843 732 l 843 0 l 574 0 l 574 339 l 467 242 l 307 242 l 307 0 l 38 0 l 38 732 l 307 732 l 307 488 l 574 488 l 574 732 "},"о":{"ha":881,"x_min":0,"x_max":0,"o":"m 574 488 l 307 488 l 307 244 l 574 244 m 38 458 l 340 732 l 843 732 l 843 274 l 544 0 l 38 0 "},"п":{"ha":881,"x_min":0,"x_max":0,"o":"m 38 732 l 307 732 l 307 561 l 494 732 l 843 732 l 843 0 l 574 0 l 574 488 l 307 488 l 307 0 l 38 0 "},"р":{"ha":881,"x_min":0,"x_max":0,"o":"m 307 -243 l 38 -243 l 38 458 l 340 732 l 843 732 l 843 274 l 543 0 l 307 0 m 574 488 l 307 488 l 307 244 l 574 244 "},"с":{"ha":781,"x_min":0,"x_max":0,"o":"m 38 457 l 339 732 l 743 732 l 743 488 l 307 488 l 307 244 l 743 244 l 743 0 l 38 0 "},"т":{"ha":1317,"x_min":0,"x_max":0,"o":"m 38 732 l 307 732 l 307 561 l 494 732 l 793 732 l 793 561 l 981 732 l 1279 732 l 1279 0 l 1010 0 l 1010 488 l 793 488 l 793 0 l 524 0 l 524 488 l 307 488 l 307 0 l 38 0 l 38 732 "},"у":{"ha":881,"x_min":0,"x_max":0,"o":"m 574 171 l 388 0 l 38 0 l 38 732 l 307 732 l 307 244 l 574 244 l 574 244 l 574 732 l 843 732 l 843 -40 l 550 -307 l 307 -307 l 307 -61 l 574 -61 "},"ф":{"ha":1418,"x_min":0,"x_max":0,"o":"m 388 0 l 38 0 l 38 456 l 340 732 l 574 732 l 574 975 l 843 975 l 843 635 l 950 732 l 1379 732 l 1379 276 l 1076 0 l 843 0 l 843 -243 l 574 -243 l 574 171 l 574 171 m 1110 488 l 843 488 l 843 244 l 1110 244 l 1110 244 m 574 488 l 307 488 l 307 244 l 574 244 "},"х":{"ha":915,"x_min":0,"x_max":0,"o":"m 306 732 l 457 544 l 610 732 l 953 732 l 629 365 l 951 0 l 760 -169 l 457 188 l 156 -169 l -37 0 l 288 365 l -37 732 "},"ц":{"ha":983,"x_min":0,"x_max":0,"o":"m 700 -243 l 700 103 l 582 0 l 38 0 l 38 732 l 307 732 l 307 244 l 574 244 l 574 732 l 843 732 l 843 244 l 969 244 l 969 -243 "},"ч":{"ha":881,"x_min":0,"x_max":0,"o":"m 574 732 l 843 732 l 843 0 l 574 0 l 574 200 l 224 200 l 38 369 l 38 732 l 307 732 l 307 444 l 574 444 "},"ш":{"ha":1317,"x_min":0,"x_max":0,"o":"m 1010 732 l 1279 732 l 1279 274 l 976 0 l 38 0 l 38 732 l 307 732 l 307 244 l 524 244 l 524 732 l 793 732 l 793 244 l 1010 244 "},"щ":{"ha":1419,"x_min":0,"x_max":0,"o":"m 1010 732 l 1279 732 l 1279 244 l 1406 244 l 1406 -243 l 1136 -243 l 1136 103 l 1018 0 l 38 0 l 38 732 l 307 732 l 307 244 l 524 244 l 524 732 l 793 732 l 793 244 l 1010 244 "},"ъ":{"ha":961,"x_min":0,"x_max":0,"o":"m 388 469 l 540 610 l 924 610 l 924 275 l 624 0 l 118 0 l 118 488 l 14 488 l 14 732 l 388 732 m 388 426 l 388 242 l 656 242 l 656 426 "},"ы":{"ha":1181,"x_min":0,"x_max":0,"o":"m 307 469 l 460 610 l 843 610 l 843 275 l 543 0 l 38 0 l 38 732 l 307 732 m 307 426 l 307 244 l 550 244 l 550 426 m 1143 0 l 874 0 l 874 732 l 1143 732 "},"ь":{"ha":881,"x_min":0,"x_max":0,"o":"m 307 469 l 460 610 l 843 610 l 843 275 l 543 0 l 38 0 l 38 732 l 307 732 m 307 426 l 307 244 l 550 244 l 550 426 "},"ю":{"ha":1308,"x_min":0,"x_max":0,"o":"m 38 0 l 38 732 l 307 732 l 307 490 l 464 490 l 464 732 l 968 732 l 1271 457 l 1271 0 l 464 0 l 464 244 l 307 244 l 307 0 m 733 244 l 1001 244 l 1001 490 l 733 490 "},"Г":{"ha":881,"x_min":0,"x_max":0,"o":"m 574 488 l 307 488 l 307 0 l 38 0 l 38 458 l 339 732 l 843 732 l 843 415 l 575 175 "},"L":{"ha":588,"x_min":0,"x_max":0,"o":"m 307 975 l 307 244 l 574 244 l 574 0 l 38 0 l 38 975 "},"э":{"ha":613,"x_min":0,"x_max":0,"o":"m 304 731 l 38 731 l 38 975 l 272 975 l 574 701 l 574 169 l 388 0 l 38 0 l 38 243 l 304 243 l 304 450 l 197 353 l 38 353 l 38 597 l 304 597 "},"I":{"ha":344,"x_min":0,"x_max":0,"o":"m 38 551 l 307 797 l 307 0 l 38 0 m 307 1039 l 307 793 l 38 793 l 38 1039 "},"+":{"ha":822,"x_min":0,"x_max":0,"o":"m 546 732 l 546 488 l 785 488 l 785 244 l 546 244 l 546 0 l 276 0 l 276 244 l 38 244 l 38 488 l 276 488 l 276 732 "},"-":{"ha":582,"x_min":0,"x_max":0,"o":"m 544 481 l 544 253 l 38 253 l 38 481 "},"×":{"ha":781,"x_min":0,"x_max":0,"o":"m 594 42 l 389 225 l 185 42 l 7 232 l 196 397 l 7 565 l 185 753 l 389 569 l 594 753 l 774 565 l 583 397 l 774 232 "},"Y":{"ha":881,"x_min":0,"x_max":0,"o":"m 574 171 l 388 0 l 38 0 l 38 732 l 307 732 l 307 244 l 574 244 l 574 244 l 574 732 l 843 732 l 843 -40 l 550 -307 l 307 -307 l 307 -61 l 574 -61 "},"«":{"ha":879,"x_min":0,"x_max":0,"o":"m 872 253 l 707 107 l 369 519 l 707 931 l 872 785 l 635 519 m 510 253 l 346 107 l 7 519 l 346 931 l 510 785 l 274 519 "},"»":{"ha":879,"x_min":0,"x_max":0,"o":"m 243 519 l 6 785 l 171 931 l 508 519 l 171 107 l 6 253 m 604 519 l 368 785 l 532 931 l 871 519 l 532 107 l 368 253 "},"‹":{"ha":518,"x_min":0,"x_max":0,"o":"m 511 253 l 347 107 l 7 519 l 347 931 l 511 785 l 275 519 "},"›":{"ha":518,"x_min":0,"x_max":0,"o":"m 242 519 l 6 785 l 169 931 l 510 519 l 169 107 l 6 253 "},"%":{"ha":1119,"x_min":0,"x_max":0,"o":"m 926 975 l 442 1 l 197 1 l 682 975 m 38 729 l 201 878 l 471 878 l 471 631 l 311 483 l 38 483 m 308 729 l 200 729 l 200 631 l 308 631 m 649 339 l 813 488 l 1082 488 l 1082 240 l 922 93 l 649 93 m 919 339 l 811 339 l 811 240 l 919 240 "},"[":{"ha":418,"x_min":0,"x_max":0,"o":"m 38 975 l 381 975 l 381 767 l 265 767 l 265 29 l 381 29 l 381 -178 l 38 -178 "},"]":{"ha":418,"x_min":0,"x_max":0,"o":"m 381 -178 l 38 -178 l 38 29 l 153 29 l 153 767 l 38 767 l 38 975 l 381 975 "},"‡":{"ha":763,"x_min":0,"x_max":0,"o":"m 496 975 l 496 732 l 725 732 l 725 525 l 496 525 l 496 271 l 725 271 l 725 64 l 496 64 l 496 -179 l 265 -179 l 265 64 l 38 64 l 38 271 l 265 271 l 265 525 l 38 525 l 38 732 l 265 732 l 265 975 "},"†":{"ha":763,"x_min":0,"x_max":0,"o":"m 496 975 l 496 732 l 725 732 l 725 525 l 496 525 l 496 -179 l 265 -179 l 265 525 l 38 525 l 38 732 l 265 732 l 265 975 "},"‘":{"ha":396,"x_min":0,"x_max":0,"o":"m 388 975 l 264 669 l 6 669 l 129 975 "},"’":{"ha":396,"x_min":0,"x_max":0,"o":"m 7 669 l 131 975 l 389 975 l 265 669 "},"”":{"ha":744,"x_min":0,"x_max":0,"o":"m 7 669 l 131 975 l 389 975 l 265 669 m 356 669 l 479 975 l 738 975 l 614 669 "},"“":{"ha":744,"x_min":0,"x_max":0,"o":"m 389 975 l 265 669 l 7 669 l 131 975 m 738 975 l 614 669 l 356 669 l 479 975 "},"^":{"ha":857,"x_min":0,"x_max":0,"o":"m 850 335 l 657 158 l 431 379 l 201 158 l 7 335 l 350 644 l 508 644 "},"–":{"ha":582,"x_min":0,"x_max":0,"o":"m 544 481 l 544 253 l 38 253 l 38 481 "},"—":{"ha":833,"x_min":0,"x_max":0,"o":"m 796 481 l 796 253 l 38 253 l 38 481 "},"_":{"ha":833,"x_min":0,"x_max":0,"o":"m 796 0 l 796 -228 l 38 -228 l 38 0 "},"/":{"ha":835,"x_min":0,"x_max":0,"o":"m -24 -242 l 614 1039 l 858 1039 l 221 -242 "},"\\":{"ha":835,"x_min":0,"x_max":0,"o":"m 614 -242 l -24 1039 l 221 1039 l 858 -242 "},"@":{"ha":1363,"x_min":0,"x_max":0,"o":"m 100 544 l 506 914 l 1263 914 l 1263 257 l 1046 257 l 1046 694 l 589 694 l 321 447 l 321 36 l 633 36 l 801 190 l 801 36 l 1263 36 l 1263 -182 l 100 -182 m 560 257 l 560 476 l 801 476 l 801 257 "},"®":{"ha":782,"x_min":0,"x_max":0,"o":"m 38 750 l 283 975 l 744 975 l 744 308 l 697 308 l 510 508 l 611 508 l 611 842 l 335 842 l 171 692 l 171 442 l 319 442 l 319 521 l 508 308 l 38 308 m 319 576 l 319 708 l 464 708 l 464 576 "},"©":{"ha":1363,"x_min":0,"x_max":0,"o":"m 100 -182 l 100 543 l 507 914 l 1263 914 l 1263 -182 m 1044 36 l 1044 258 l 561 258 l 561 476 l 1044 476 l 1044 694 l 590 694 l 319 447 l 319 36 "},"æ":{"ha":1543,"x_min":0,"x_max":0,"o":"m 574 172 l 385 0 l 38 0 l 38 458 l 339 732 l 843 732 l 843 563 l 1032 732 l 1506 732 l 1506 417 l 1318 244 l 1506 244 l 1506 0 l 1032 0 l 843 172 l 843 0 l 574 0 m 1236 244 l 1236 488 l 969 488 l 969 244 m 574 244 l 574 488 l 307 488 l 307 244 "},"œ":{"ha":1543,"x_min":0,"x_max":0,"o":"m 574 488 l 307 488 l 307 244 l 574 244 m 1506 244 l 1506 0 l 950 0 l 776 158 l 603 0 l 38 0 l 38 458 l 342 732 l 843 732 l 843 563 l 1031 732 l 1506 732 l 1506 417 l 1319 244 m 1236 488 l 969 488 l 969 244 l 1236 244 "},"ß":{"ha":836,"x_min":0,"x_max":0,"o":"m 531 810 l 307 810 l 307 626 l 531 626 m 307 557 l 307 0 l 38 0 l 38 794 l 306 1039 l 799 1039 l 799 719 l 638 574 l 799 390 l 799 0 l 381 0 l 381 244 l 583 244 "},"¦":{"ha":297,"x_min":0,"x_max":0,"o":"m 260 1039 l 260 429 l 38 429 l 38 1039 m 38 -243 l 38 368 l 260 368 l 260 -243 "},"±":{"ha":599,"x_min":0,"x_max":0,"o":"m 392 732 l 392 561 l 560 561 l 560 390 l 392 390 l 392 219 l 203 219 l 203 390 l 36 390 l 36 561 l 203 561 l 203 732 m 474 165 l 474 6 l 119 6 l 119 165 "},"¤":{"ha":917,"x_min":0,"x_max":0,"o":"m 299 824 l 618 824 l 753 943 l 910 764 l 786 657 l 786 315 l 910 208 l 753 31 l 618 150 l 299 150 l 163 31 l 7 208 l 129 315 l 129 657 l 7 764 l 163 943 m 568 372 l 568 600 l 347 600 l 347 372 "},"€":{"ha":749,"x_min":0,"x_max":0,"o":"m 593 665 l 539 513 l 38 513 l 38 700 l 338 975 l 711 975 l 711 731 l 304 731 l 304 665 m 464 307 l 304 307 l 304 242 l 711 242 l 711 0 l 224 0 l 38 169 l 38 458 l 517 458 "},"$":{"ha":743,"x_min":0,"x_max":0,"o":"m 189 28 l 38 28 l 38 258 l 189 258 l 189 374 l 38 374 l 38 689 l 189 826 l 189 1039 l 343 1039 l 343 -61 l 189 -61 m 401 1039 l 556 1039 l 556 947 l 706 947 l 706 717 l 556 717 l 556 601 l 706 601 l 706 288 l 556 150 l 556 -61 l 401 -61 "},"§":{"ha":888,"x_min":0,"x_max":0,"o":"m 515 751 l 881 418 l 356 -61 l 207 76 l 371 226 l 7 560 l 531 1039 l 681 901 m 364 614 l 306 560 l 521 364 l 582 418 "},"­":{"ha":582,"x_min":0,"x_max":0,"o":"m 544 481 l 544 253 l 38 253 l 38 481 "},"£":{"ha":725,"x_min":0,"x_max":0,"o":"m 113 564 l 113 700 l 414 975 l 578 975 l 578 731 l 381 731 l 381 564 l 579 564 l 579 410 l 381 410 l 381 244 l 711 244 l 711 0 l 39 0 l 39 124 l 113 190 l 113 410 l 38 410 l 38 564 "},"¥":{"ha":806,"x_min":0,"x_max":0,"o":"m 650 1004 l 843 833 l 628 610 l 753 610 l 753 456 l 53 456 l 53 610 l 175 610 l -37 833 l 154 1004 l 404 713 m 53 242 l 53 396 l 753 396 l 753 242 l 538 242 l 538 0 l 267 0 l 267 242 "},"¢":{"ha":782,"x_min":0,"x_max":0,"o":"m 38 578 l 258 776 l 258 975 l 526 975 l 526 853 l 744 853 l 744 610 l 307 610 l 307 363 l 744 363 l 744 121 l 526 121 l 526 0 l 258 0 l 258 121 l 38 121 "},"◊":{"ha":671,"x_min":0,"x_max":0,"o":"m 335 797 l 664 397 l 335 -3 l 7 397 m 397 397 l 335 467 l 272 397 l 335 326 "},"₠":{"ha":1242,"x_min":0,"x_max":0,"o":"m 38 700 l 339 975 l 668 975 l 668 731 l 306 731 l 306 485 l 433 485 l 701 731 l 1204 731 l 1204 411 l 1017 242 l 1204 242 l 1204 0 l 588 0 l 400 169 l 400 242 l 38 242 m 933 485 l 668 485 l 668 242 l 933 242 "},"₭":{"ha":1015,"x_min":0,"x_max":0,"o":"m 693 0 l 463 278 l 463 0 l 194 0 l 194 242 l 14 242 l 14 396 l 715 396 l 1053 0 m 194 610 l 194 975 l 463 975 l 463 481 l 679 732 l 1025 732 l 754 456 l 14 456 l 14 610 "},"₱":{"ha":1093,"x_min":0,"x_max":0,"o":"m 14 579 l 426 579 l 426 485 l 665 485 l 665 579 l 1079 579 l 1079 425 l 831 425 l 629 242 l 426 242 l 426 0 l 160 0 l 160 425 l 14 425 m 1079 793 l 1079 639 l 665 639 l 665 731 l 426 731 l 426 639 l 14 639 l 14 793 l 260 793 l 460 975 l 931 975 l 931 793 "},"₧":{"ha":1818,"x_min":0,"x_max":0,"o":"m 1804 403 l 1804 113 l 1679 -1 l 1424 -1 l 1424 161 l 1625 161 l 1625 242 l 1338 242 l 1338 161 l 983 161 l 983 485 l 806 485 l 539 242 l 304 242 l 304 0 l 38 0 l 38 700 l 339 975 l 842 975 l 842 521 l 983 650 l 983 813 l 1163 813 l 1163 650 l 1338 650 l 1338 485 l 1163 485 l 1163 324 l 1333 324 l 1333 464 l 1535 650 l 1804 650 l 1804 485 l 1513 485 l 1513 403 m 571 731 l 304 731 l 304 485 l 571 485 "},"÷":{"ha":833,"x_min":0,"x_max":0,"o":"m 796 461 l 796 279 l 38 279 l 38 461 m 415 776 l 571 636 l 415 494 l 260 636 m 415 240 l 571 100 l 415 -42 l 260 100 "},"≈":{"ha":901,"x_min":0,"x_max":0,"o":"m 193 19 l 22 214 l 325 481 l 575 253 l 724 388 l 894 193 l 592 -74 l 342 153 m 178 403 l 7 597 l 310 864 l 560 636 l 708 771 l 879 576 l 576 310 l 326 536 "},"Œ":{"ha":1543,"x_min":0,"x_max":0,"o":"m 574 488 l 307 488 l 307 244 l 574 244 m 1506 244 l 1506 0 l 950 0 l 776 158 l 603 0 l 38 0 l 38 458 l 342 732 l 843 732 l 843 563 l 1031 732 l 1506 732 l 1506 417 l 1319 244 m 1236 488 l 969 488 l 969 244 l 1236 244 "},"Æ":{"ha":1543,"x_min":0,"x_max":0,"o":"m 574 172 l 385 0 l 38 0 l 38 458 l 339 732 l 843 732 l 843 563 l 1032 732 l 1506 732 l 1506 417 l 1318 244 l 1506 244 l 1506 0 l 1032 0 l 843 172 l 843 0 l 574 0 m 1236 244 l 1236 488 l 969 488 l 969 244 m 574 244 l 574 488 l 307 488 l 307 244 "},"<":{"ha":657,"x_min":0,"x_max":0,"o":"m 481 789 l 650 596 l 374 369 l 650 140 l 481 -54 l 7 368 "},">":{"ha":657,"x_min":0,"x_max":0,"o":"m 636 368 l 163 -54 l -7 140 l 269 369 l -7 596 l 163 789 "},"A":{"ha":881,"x_min":0,"x_max":0,"o":"m 388 0 l 38 0 l 38 457 l 340 732 l 843 732 l 843 0 l 574 0 l 574 169 m 574 488 l 307 488 l 307 244 l 574 244 "},"ˆ":{"ha":682,"x_min":0,"x_max":0,"o":"m 283 1039 l 494 1039 l 675 881 l 526 746 l 388 872 l 300 793 l 7 793 "},"˜":{"ha":722,"x_min":0,"x_max":0,"o":"m 558 746 l 456 839 l 404 793 l 96 793 l 7 871 l 163 1011 l 267 918 l 469 1100 l 715 888 "},"Â":{"ha":881,"x_min":0,"x_max":0,"o":"m 388 0 l 38 0 l 38 457 l 340 732 l 843 732 l 843 0 l 574 0 l 574 169 m 574 488 l 307 488 l 307 244 l 574 244 m 372 1039 l 583 1039 l 764 881 l 615 746 l 476 872 l 389 793 l 96 793 "},"B":{"ha":881,"x_min":0,"x_max":0,"o":"m 494 732 l 843 732 l 843 0 l 225 0 l 38 169 l 38 975 l 307 975 l 307 561 l 307 561 m 307 244 l 574 244 l 574 488 l 307 488 "},"C":{"ha":781,"x_min":0,"x_max":0,"o":"m 38 457 l 339 732 l 743 732 l 743 488 l 307 488 l 307 244 l 743 244 l 743 0 l 38 0 "},"D":{"ha":881,"x_min":0,"x_max":0,"o":"m 574 975 l 843 975 l 843 0 l 225 0 l 38 169 l 38 732 l 388 732 l 574 560 m 307 488 l 307 244 l 574 244 l 574 488 "},"E":{"ha":867,"x_min":0,"x_max":0,"o":"m 646 244 l 646 244 l 829 244 l 829 0 l 210 0 l 24 169 l 24 458 l 325 732 l 829 732 l 829 415 l 646 244 m 560 244 l 560 488 l 293 488 l 293 244 l 560 244 "},"F":{"ha":611,"x_min":0,"x_max":0,"o":"m 307 794 l 307 606 l 414 703 l 574 703 l 574 458 l 307 458 l 307 0 l 38 0 l 38 764 l 340 1039 l 574 1039 l 574 794 l 307 794 "},"G":{"ha":881,"x_min":0,"x_max":0,"o":"m 388 0 l 38 0 l 38 457 l 339 732 l 843 732 l 843 -65 l 578 -307 l 307 -310 l 307 -68 l 574 -65 l 574 171 l 574 171 m 574 488 l 307 488 l 307 244 l 574 244 "},"H":{"ha":881,"x_min":0,"x_max":0,"o":"m 307 561 l 496 732 l 843 732 l 843 0 l 574 0 l 574 488 l 307 488 l 307 0 l 38 0 l 38 975 l 307 975 l 307 561 "},"M":{"ha":1317,"x_min":0,"x_max":0,"o":"m 38 732 l 307 732 l 307 561 l 494 732 l 793 732 l 793 561 l 981 732 l 1279 732 l 1279 0 l 1010 0 l 1010 488 l 793 488 l 793 0 l 524 0 l 524 488 l 307 488 l 307 0 l 38 0 l 38 732 "},"N":{"ha":881,"x_min":0,"x_max":0,"o":"m 38 732 l 307 732 l 307 561 l 494 732 l 843 732 l 843 0 l 574 0 l 574 488 l 307 488 l 307 0 l 38 0 "},"O":{"ha":881,"x_min":0,"x_max":0,"o":"m 307 244 l 574 244 l 574 488 l 307 488 m 843 0 l 336 0 l 38 274 l 38 732 l 540 732 l 843 458 "},"P":{"ha":881,"x_min":0,"x_max":0,"o":"m 307 171 l 307 171 l 307 -243 l 38 -243 l 38 563 l 225 732 l 843 732 l 843 0 l 494 0 l 307 171 m 307 244 l 574 244 l 574 488 l 307 488 l 307 244 "},"Q":{"ha":881,"x_min":0,"x_max":0,"o":"m 574 244 l 574 488 l 307 488 l 307 244 m 574 171 l 388 0 l 38 0 l 38 732 l 547 732 l 843 464 l 843 -243 l 574 -243 "},"T":{"ha":833,"x_min":0,"x_max":0,"o":"m 14 732 l 819 732 l 819 490 l 549 490 l 549 0 l 281 0 l 281 490 l 14 490 "},"U":{"ha":881,"x_min":0,"x_max":0,"o":"m 843 0 l 574 0 l 574 171 l 386 0 l 38 0 l 38 732 l 307 732 l 307 244 l 574 244 l 574 732 l 843 732 "},"V":{"ha":881,"x_min":0,"x_max":0,"o":"m 307 244 l 574 244 l 574 732 l 843 732 l 843 0 l 339 0 l 38 274 l 38 732 l 307 732 "},"W":{"ha":1317,"x_min":0,"x_max":0,"o":"m 307 244 l 524 244 l 524 732 l 793 732 l 793 244 l 1010 244 l 1010 732 l 1279 732 l 1279 0 l 340 0 l 38 274 l 38 732 l 307 732 "},"K":{"ha":846,"x_min":0,"x_max":0,"o":"m 307 264 l 307 0 l 38 0 l 38 732 l 307 732 l 307 469 l 540 732 l 883 732 l 546 382 l 883 0 l 689 -168 "},"Z":{"ha":864,"x_min":0,"x_max":0,"o":"m 499 244 l 826 244 l 826 0 l 7 0 l 399 488 l 38 488 l 38 732 l 826 732 l 826 610 "},"¨":{"ha":725,"x_min":0,"x_max":0,"o":"m 182 1072 l 357 913 l 182 754 l 7 913 m 543 1072 l 718 913 l 543 754 l 368 913 "},"ä":{"ha":881,"x_min":0,"x_max":0,"o":"m 260 1072 l 435 913 l 260 754 l 85 913 m 621 1072 l 796 913 l 621 754 l 446 913 m 388 0 l 38 0 l 38 457 l 340 732 l 843 732 l 843 0 l 574 0 l 574 169 m 574 488 l 307 488 l 307 244 l 574 244 "},"ï":{"ha":344,"x_min":0,"x_max":0,"o":"m 307 0 l 38 0 l 38 732 l 307 732 m -8 1072 l 167 913 l -8 754 l -183 913 m 353 1072 l 528 913 l 353 754 l 178 913 "},"ö":{"ha":881,"x_min":0,"x_max":0,"o":"m 574 488 l 307 488 l 307 244 l 574 244 m 38 458 l 340 732 l 843 732 l 843 274 l 544 0 l 38 0 m 260 1072 l 435 913 l 260 754 l 85 913 m 621 1072 l 796 913 l 621 754 l 446 913 "},"ê":{"ha":867,"x_min":0,"x_max":0,"o":"m 358 1039 l 569 1039 l 750 881 l 601 746 l 463 872 l 375 793 l 82 793 m 646 244 l 646 244 l 829 244 l 829 0 l 210 0 l 24 169 l 24 458 l 325 732 l 829 732 l 829 415 l 646 244 m 560 244 l 560 488 l 293 488 l 293 244 l 560 244 "},"î":{"ha":344,"x_min":0,"x_max":0,"o":"m 307 0 l 38 0 l 38 732 l 307 732 m 67 1039 l 278 1039 l 458 881 l 310 746 l 171 872 l 83 793 l -210 793 "},"Ê":{"ha":867,"x_min":0,"x_max":0,"o":"m 646 244 l 646 244 l 829 244 l 829 0 l 210 0 l 24 169 l 24 458 l 325 732 l 829 732 l 829 415 l 646 244 m 560 244 l 560 488 l 293 488 l 293 244 l 560 244 m 358 1039 l 569 1039 l 750 881 l 601 746 l 463 872 l 375 793 l 82 793 "},"Ô":{"ha":881,"x_min":0,"x_max":0,"o":"m 307 488 l 574 488 l 574 244 l 307 244 m 843 458 l 540 732 l 38 732 l 38 274 l 336 0 l 843 0 m 401 1039 l 613 1039 l 793 881 l 644 746 l 506 872 l 418 793 l 125 793 "},"Ö":{"ha":881,"x_min":0,"x_max":0,"o":"m 307 488 l 574 488 l 574 244 l 307 244 m 843 458 l 540 732 l 38 732 l 38 274 l 336 0 l 843 0 m 260 1072 l 435 913 l 260 754 l 85 913 m 621 1072 l 796 913 l 621 754 l 446 913 "},"Û":{"ha":881,"x_min":0,"x_max":0,"o":"m 383 1039 l 594 1039 l 775 881 l 626 746 l 488 872 l 400 793 l 107 793 m 843 732 l 574 732 l 574 244 l 307 244 l 307 732 l 38 732 l 38 0 l 386 0 l 574 171 l 574 0 l 843 0 "},"Ü":{"ha":881,"x_min":0,"x_max":0,"o":"m 278 1072 l 453 913 l 278 754 l 103 913 m 639 1072 l 814 913 l 639 754 l 464 913 m 843 732 l 574 732 l 574 244 l 307 244 l 307 732 l 38 732 l 38 0 l 386 0 l 574 171 l 574 0 l 843 0 "},"â":{"ha":881,"x_min":0,"x_max":0,"o":"m 372 1039 l 583 1039 l 764 881 l 615 746 l 476 872 l 389 793 l 96 793 m 388 0 l 38 0 l 38 457 l 340 732 l 843 732 l 843 0 l 574 0 l 574 169 m 574 488 l 307 488 l 307 244 l 574 244 "},"ô":{"ha":881,"x_min":0,"x_max":0,"o":"m 574 488 l 307 488 l 307 244 l 574 244 m 38 458 l 340 732 l 843 732 l 843 274 l 544 0 l 38 0 m 335 1039 l 546 1039 l 726 881 l 578 746 l 439 872 l 351 793 l 58 793 "},"Ä":{"ha":881,"x_min":0,"x_max":0,"o":"m 278 1072 l 453 913 l 278 754 l 103 913 m 639 1072 l 814 913 l 639 754 l 464 913 m 388 0 l 38 0 l 38 457 l 340 732 l 843 732 l 843 0 l 574 0 l 574 169 m 574 488 l 307 488 l 307 244 l 574 244 "},"Ã":{"ha":881,"x_min":0,"x_max":0,"o":"m 388 0 l 38 0 l 38 457 l 340 732 l 843 732 l 843 0 l 574 0 l 574 169 m 574 488 l 307 488 l 307 244 l 574 244 m 638 746 l 535 839 l 483 793 l 175 793 l 86 871 l 242 1011 l 346 918 l 549 1100 l 794 888 "},"Ñ":{"ha":881,"x_min":0,"x_max":0,"o":"m 638 746 l 535 839 l 483 793 l 175 793 l 86 871 l 242 1011 l 346 918 l 549 1100 l 794 888 m 38 0 l 307 0 l 307 488 l 574 488 l 574 0 l 843 0 l 843 732 l 494 732 l 307 561 l 307 732 l 38 732 "},"Õ":{"ha":881,"x_min":0,"x_max":0,"o":"m 307 488 l 574 488 l 574 244 l 307 244 m 843 458 l 540 732 l 38 732 l 38 274 l 336 0 l 843 0 m 651 746 l 549 839 l 497 793 l 189 793 l 100 871 l 256 1011 l 360 918 l 563 1100 l 808 888 "},"ã":{"ha":881,"x_min":0,"x_max":0,"o":"m 638 746 l 535 839 l 483 793 l 175 793 l 86 871 l 242 1011 l 346 918 l 549 1100 l 794 888 m 388 0 l 38 0 l 38 457 l 340 732 l 843 732 l 843 0 l 574 0 l 574 169 m 574 488 l 307 488 l 307 244 l 574 244 "},"õ":{"ha":881,"x_min":0,"x_max":0,"o":"m 574 488 l 307 488 l 307 244 l 574 244 m 38 458 l 340 732 l 843 732 l 843 274 l 544 0 l 38 0 m 638 746 l 535 839 l 483 793 l 175 793 l 86 871 l 242 1011 l 346 918 l 549 1100 l 794 888 "},"Î":{"ha":344,"x_min":0,"x_max":0,"o":"m 307 0 l 38 0 l 38 732 l 307 732 m 67 1039 l 278 1039 l 458 881 l 310 746 l 171 872 l 83 793 l -210 793 "},"Ï":{"ha":344,"x_min":0,"x_max":0,"o":"m 307 0 l 38 0 l 38 732 l 307 732 m -8 1072 l 167 913 l -8 754 l -183 913 m 353 1072 l 528 913 l 353 754 l 178 913 "},"Ž":{"ha":864,"x_min":0,"x_max":0,"o":"m 539 793 l 328 793 l 147 951 l 296 1086 l 435 960 l 522 1039 l 815 1039 m 499 244 l 826 244 l 826 0 l 7 0 l 399 488 l 38 488 l 38 732 l 826 732 l 826 610 "},"ž":{"ha":721,"x_min":0,"x_max":0,"o":"m 451 793 l 240 793 l 60 951 l 208 1086 l 347 960 l 435 1039 l 728 1039 m 567 -335 l 758 -165 l 460 156 l 756 460 l 454 732 l 14 732 l 14 488 l 438 488 l 139 149 "},"Ÿ":{"ha":881,"x_min":0,"x_max":0,"o":"m 278 1072 l 453 913 l 278 754 l 103 913 m 639 1072 l 814 913 l 639 754 l 464 913 m 574 -61 l 307 -61 l 307 -307 l 550 -307 l 843 -40 l 843 732 l 574 732 l 574 244 l 574 244 l 307 244 l 307 732 l 38 732 l 38 0 l 388 0 l 574 171 "},"š":{"ha":672,"x_min":0,"x_max":0,"o":"m 307 488 l 635 488 l 635 732 l 339 732 l 38 458 l 38 122 l 365 122 l 365 0 l 131 0 l 131 -243 l 332 -243 l 635 32 l 635 365 l 307 365 m 531 793 l 319 793 l 139 951 l 288 1086 l 426 960 l 514 1039 l 807 1039 "},"А":{"ha":881,"x_min":0,"x_max":0,"o":"m 388 0 l 38 0 l 38 457 l 340 732 l 843 732 l 843 0 l 574 0 l 574 169 m 574 488 l 307 488 l 307 244 l 574 244 "},"Б":{"ha":881,"x_min":0,"x_max":0,"o":"m 307 561 l 494 732 l 843 732 l 843 275 l 540 0 l 38 0 l 38 794 l 307 1039 l 710 1039 l 710 793 l 307 793 m 307 488 l 307 244 l 574 244 l 574 488 "},"В":{"ha":881,"x_min":0,"x_max":0,"o":"m 531 810 l 307 810 l 307 626 l 531 626 m 574 244 l 574 465 l 307 464 l 307 244 m 540 0 l 38 0 l 38 794 l 307 1039 l 799 1039 l 799 768 l 643 626 l 843 626 l 843 275 "},"Е":{"ha":867,"x_min":0,"x_max":0,"o":"m 646 244 l 646 244 l 829 244 l 829 0 l 210 0 l 24 169 l 24 458 l 325 732 l 829 732 l 829 415 l 646 244 m 560 244 l 560 488 l 293 488 l 293 244 l 560 244 "},"Ж":{"ha":1347,"x_min":0,"x_max":0,"o":"m 808 264 l 808 0 l 539 0 l 539 264 l 157 -168 l -37 0 l 300 382 l -37 732 l 306 732 l 539 469 l 539 975 l 808 975 l 808 469 l 1042 732 l 1385 732 l 1047 382 l 1385 0 l 1190 -168 l 808 264 "},"Й":{"ha":881,"x_min":0,"x_max":0,"o":"m 575 731 l 306 731 l 306 975 l 575 975 m 843 732 l 574 732 l 574 244 l 307 244 l 307 732 l 38 732 l 38 0 l 386 0 l 574 171 l 574 0 l 843 0 "},"К":{"ha":846,"x_min":0,"x_max":0,"o":"m 307 264 l 307 0 l 38 0 l 38 732 l 307 732 l 307 469 l 540 732 l 883 732 l 546 382 l 883 0 l 689 -168 "},"Л":{"ha":881,"x_min":0,"x_max":0,"o":"m 307 0 l 38 0 l 38 458 l 339 732 l 843 732 l 843 0 l 574 0 l 574 488 l 307 488 "},"М":{"ha":1317,"x_min":0,"x_max":0,"o":"m 307 0 l 38 0 l 38 458 l 340 732 l 1279 732 l 1279 0 l 1010 0 l 1010 488 l 793 488 l 793 0 l 524 0 l 524 488 l 307 488 "},"Н":{"ha":881,"x_min":0,"x_max":0,"o":"m 843 732 l 843 0 l 574 0 l 574 339 l 467 242 l 307 242 l 307 0 l 38 0 l 38 732 l 307 732 l 307 488 l 574 488 l 574 732 "},"О":{"ha":881,"x_min":0,"x_max":0,"o":"m 307 244 l 574 244 l 574 488 l 307 488 m 843 0 l 336 0 l 38 274 l 38 732 l 540 732 l 843 458 "},"П":{"ha":881,"x_min":0,"x_max":0,"o":"m 38 732 l 307 732 l 307 561 l 494 732 l 843 732 l 843 0 l 574 0 l 574 488 l 307 488 l 307 0 l 38 0 "},"Р":{"ha":881,"x_min":0,"x_max":0,"o":"m 307 171 l 307 171 l 307 -243 l 38 -243 l 38 563 l 225 732 l 843 732 l 843 0 l 494 0 l 307 171 m 307 244 l 574 244 l 574 488 l 307 488 l 307 244 "},"С":{"ha":781,"x_min":0,"x_max":0,"o":"m 38 457 l 339 732 l 743 732 l 743 488 l 307 488 l 307 244 l 743 244 l 743 0 l 38 0 "},"Т":{"ha":833,"x_min":0,"x_max":0,"o":"m 14 732 l 819 732 l 819 490 l 549 490 l 549 0 l 281 0 l 281 490 l 14 490 "},"У":{"ha":881,"x_min":0,"x_max":0,"o":"m 574 171 l 388 0 l 38 0 l 38 732 l 307 732 l 307 244 l 574 244 l 574 244 l 574 732 l 843 732 l 843 -40 l 550 -307 l 307 -307 l 307 -61 l 574 -61 "},"Ф":{"ha":1417,"x_min":0,"x_max":0,"o":"m 388 0 l 38 0 l 38 456 l 340 732 l 574 732 l 574 975 l 843 975 l 843 635 l 950 732 l 1379 732 l 1379 276 l 1076 0 l 843 0 l 843 -243 l 574 -243 l 574 171 l 574 171 m 1110 488 l 843 488 l 843 244 l 1110 244 l 1110 244 m 574 488 l 307 488 l 307 244 l 574 244 "},"Х":{"ha":915,"x_min":0,"x_max":0,"o":"m 306 732 l 457 544 l 610 732 l 953 732 l 629 365 l 951 0 l 760 -169 l 457 188 l 156 -169 l -37 0 l 288 365 l -37 732 "},"Я":{"ha":881,"x_min":0,"x_max":0,"o":"m 228 151 l 38 321 l 38 732 l 542 732 l 843 457 l 843 0 l 575 0 l 575 175 l 146 -307 l -46 -136 m 307 274 l 574 274 l 574 488 l 307 488 "},"Ю":{"ha":1308,"x_min":0,"x_max":0,"o":"m 38 0 l 38 975 l 307 975 l 307 490 l 464 490 l 464 732 l 968 732 l 1271 457 l 1271 0 l 464 0 l 464 244 l 307 244 l 307 0 m 733 244 l 1001 244 l 1001 490 l 733 490 "},"Ц":{"ha":1015,"x_min":0,"x_max":0,"o":"m 339 0 l 38 275 l 38 732 l 307 732 l 307 244 l 574 244 l 574 732 l 843 732 l 843 244 l 1001 244 l 1001 -243 l 732 -243 l 732 0 "},"Ч":{"ha":881,"x_min":0,"x_max":0,"o":"m 843 732 l 843 0 l 574 0 l 574 297 l 469 200 l 38 200 l 38 732 l 307 732 l 307 446 l 574 446 l 574 732 "},"¯":{"ha":604,"x_min":0,"x_max":0,"o":"m 597 793 l 7 793 l 7 989 l 597 989 "},"Š":{"ha":672,"x_min":0,"x_max":0,"o":"m 531 793 l 319 793 l 139 951 l 288 1086 l 426 960 l 514 1039 l 807 1039 m 307 488 l 635 488 l 635 732 l 339 732 l 38 458 l 38 122 l 365 122 l 365 0 l 131 0 l 131 -243 l 332 -243 l 635 32 l 635 365 l 307 365 "},"`":{"ha":357,"x_min":0,"x_max":0,"o":"m 350 793 l 282 793 l 7 1039 l 350 1039 "},"´":{"ha":357,"x_min":0,"x_max":0,"o":"m 7 1039 l 350 1039 l 75 793 l 7 793 "},"̀":{"ha":357,"x_min":0,"x_max":0,"o":"m 350 793 l 282 793 l 7 1039 l 350 1039 "},"́":{"ha":357,"x_min":0,"x_max":0,"o":"m 6 1039 l 349 1039 l 74 793 l 6 793 "},"̂":{"ha":682,"x_min":0,"x_max":0,"o":"m 283 1039 l 494 1039 l 675 881 l 526 746 l 388 872 l 300 793 l 7 793 "},"̃":{"ha":722,"x_min":0,"x_max":0,"o":"m 558 746 l 456 839 l 404 793 l 96 793 l 7 871 l 163 1011 l 267 918 l 469 1100 l 715 888 "},"̄":{"ha":604,"x_min":0,"x_max":0,"o":"m 597 793 l 7 793 l 7 989 l 597 989 "},"̈":{"ha":725,"x_min":0,"x_max":0,"o":"m 182 1072 l 357 913 l 182 754 l 7 913 m 543 1072 l 718 913 l 543 754 l 368 913 "},"̌":{"ha":682,"x_min":0,"x_max":0,"o":"m 399 793 l 188 793 l 7 951 l 156 1086 l 294 960 l 382 1039 l 675 1039 "},"₀":{"ha":678,"x_min":0,"x_max":0,"o":"m 440 -61 l 440 306 l 239 306 l 239 -61 m 38 282 l 264 488 l 640 488 l 640 -37 l 415 -243 l 38 -243 "},"₁":{"ha":356,"x_min":0,"x_max":0,"o":"m 318 488 l 318 -243 l 115 -243 l 115 306 l 14 306 l 14 488 "},"₂":{"ha":572,"x_min":0,"x_max":0,"o":"m 594 283 l 281 -61 l 547 -61 l 547 -243 l 38 -243 l 38 -51 l 367 306 l 228 306 l 232 214 l 38 214 l 38 488 l 369 488 "},"₃":{"ha":532,"x_min":0,"x_max":0,"o":"m 569 283 l 414 122 l 524 13 l 524 -243 l 26 -243 l 26 -60 l 343 -60 l 175 122 l 343 306 l 206 306 l 208 214 l 14 214 l 14 488 l 346 488 "},"₄":{"ha":588,"x_min":0,"x_max":0,"o":"m -37 113 l 349 536 l 550 353 l 550 -243 l 349 -243 l 349 -61 l 151 -61 m 349 263 l 210 113 l 349 113 "},"₅":{"ha":556,"x_min":0,"x_max":0,"o":"m 317 50 l 38 50 l 38 488 l 458 488 l 458 306 l 240 306 l 240 225 l 518 225 l 518 -74 l 331 -243 l 79 -243 l 79 -61 l 317 -61 "},"₆":{"ha":628,"x_min":0,"x_max":0,"o":"m 389 103 l 218 103 l 218 -61 l 389 -61 m 38 204 l 340 533 l 485 418 l 331 263 l 590 263 l 590 -37 l 364 -243 l 38 -243 "},"₇":{"ha":564,"x_min":0,"x_max":0,"o":"m 601 283 l 343 8 l 343 -243 l 140 -243 l 140 64 l 364 306 l 206 306 l 208 214 l 14 214 l 14 488 l 376 488 "},"₈":{"ha":636,"x_min":0,"x_max":0,"o":"m 399 50 l 238 50 l 238 -61 l 399 -61 m 399 214 l 399 306 l 238 306 l 238 214 m 38 47 l 131 133 l 38 133 l 38 318 l 225 488 l 599 488 l 599 217 l 506 133 l 599 133 l 599 -74 l 411 -243 l 38 -243 "},"₉":{"ha":628,"x_min":0,"x_max":0,"o":"m 239 142 l 410 142 l 410 306 l 239 306 m 590 39 l 288 -290 l 143 -174 l 297 -19 l 38 -19 l 38 282 l 264 488 l 590 488 "},"⁰":{"ha":678,"x_min":0,"x_max":0,"o":"m 440 426 l 440 793 l 239 793 l 239 426 m 38 769 l 264 975 l 640 975 l 640 450 l 415 244 l 38 244 "},"⁴":{"ha":588,"x_min":0,"x_max":0,"o":"m -37 600 l 349 1024 l 550 840 l 550 244 l 349 244 l 349 426 l 151 426 m 349 750 l 210 600 l 349 600 "},"⁵":{"ha":556,"x_min":0,"x_max":0,"o":"m 317 538 l 38 538 l 38 975 l 458 975 l 458 793 l 240 793 l 240 713 l 518 713 l 518 414 l 331 244 l 79 244 l 79 426 l 317 426 "},"⁶":{"ha":628,"x_min":0,"x_max":0,"o":"m 389 590 l 218 590 l 218 426 l 389 426 m 38 692 l 340 1021 l 485 906 l 331 750 l 590 750 l 590 450 l 364 244 l 38 244 "},"⁷":{"ha":564,"x_min":0,"x_max":0,"o":"m 601 771 l 343 496 l 343 244 l 140 244 l 140 551 l 364 793 l 206 793 l 208 701 l 14 701 l 14 975 l 376 975 "},"⁸":{"ha":636,"x_min":0,"x_max":0,"o":"m 399 538 l 238 538 l 238 426 l 399 426 m 399 701 l 399 793 l 238 793 l 238 701 m 38 535 l 131 621 l 38 621 l 38 806 l 225 975 l 599 975 l 599 704 l 506 621 l 599 621 l 599 414 l 411 244 l 38 244 "},"⁹":{"ha":628,"x_min":0,"x_max":0,"o":"m 239 629 l 410 629 l 410 793 l 239 793 m 590 526 l 288 197 l 143 314 l 297 468 l 38 468 l 38 769 l 264 975 l 590 975 "},"ⁱ":{"ha":344,"x_min":0,"x_max":0,"o":"m 38 685 l 307 881 l 307 243 l 38 243 m 307 1074 l 307 878 l 38 878 l 38 1074 "},"(":{"ha":460,"x_min":0,"x_max":0,"o":"m 289 1071 l 453 921 l 251 738 l 251 58 l 453 -125 l 289 -275 l 38 -49 l 38 844 "},")":{"ha":460,"x_min":0,"x_max":0,"o":"m 157 -275 l -7 -125 l 194 58 l 194 738 l -7 921 l 157 1071 l 408 844 l 408 -49 "},"{":{"ha":490,"x_min":0,"x_max":0,"o":"m 483 -124 l 319 -274 l 124 -108 l 125 -96 l 124 -97 l 124 288 l 7 399 l 124 510 l 124 894 l 125 893 l 124 906 l 319 1071 l 483 921 l 338 799 l 338 488 l 250 399 l 338 310 l 338 -1 "},"}":{"ha":490,"x_min":0,"x_max":0,"o":"m -7 919 l 157 1069 l 353 904 l 351 892 l 353 893 l 353 508 l 469 397 l 353 286 l 353 -99 l 351 -97 l 353 -110 l 157 -275 l -7 -125 l 139 -3 l 139 308 l 226 397 l 139 486 l 139 797 "},"&":{"ha":840,"x_min":0,"x_max":0,"o":"m 546 111 l 546 0 l 36 0 l 36 317 l 208 494 l 7 714 l 297 978 l 711 978 l 711 676 l 538 494 l 878 110 l 692 -61 m 372 336 l 285 246 l 450 246 m 375 663 l 454 751 l 303 751 "},"ƒ":{"ha":749,"x_min":0,"x_max":0,"o":"m 204 518 l 38 518 l 38 674 l 204 674 l 204 764 l 506 1039 l 742 1039 l 742 794 l 471 794 l 471 674 l 642 674 l 642 518 l 471 518 l 471 144 l 243 -61 l 38 -61 l 38 183 l 204 183 "},"¹":{"ha":356,"x_min":0,"x_max":0,"o":"m 318 975 l 318 244 l 115 244 l 115 793 l 14 793 l 14 975 "},"²":{"ha":571,"x_min":0,"x_max":0,"o":"m 593 771 l 279 426 l 546 426 l 546 244 l 36 244 l 36 436 l 365 793 l 226 793 l 231 701 l 36 701 l 36 975 l 368 975 "},"³":{"ha":542,"x_min":0,"x_max":0,"o":"m 569 771 l 414 610 l 524 500 l 524 244 l 26 244 l 26 428 l 343 428 l 175 610 l 343 793 l 206 793 l 208 701 l 14 701 l 14 975 l 346 975 "},"Ì":{"ha":344,"x_min":0,"x_max":0,"o":"m 307 0 l 38 0 l 38 732 l 307 732 m 307 793 l 239 793 l -36 1039 l 307 1039 "},"Í":{"ha":344,"x_min":0,"x_max":0,"o":"m 307 0 l 38 0 l 38 732 l 307 732 m 38 1039 l 381 1039 l 106 793 l 38 793 "},"Ò":{"ha":881,"x_min":0,"x_max":0,"o":"m 307 488 l 574 488 l 574 244 l 307 244 m 843 458 l 540 732 l 38 732 l 38 274 l 336 0 l 843 0 m 574 793 l 506 793 l 231 1039 l 574 1039 "},"Ó":{"ha":881,"x_min":0,"x_max":0,"o":"m 307 244 l 574 244 l 574 488 l 307 488 m 843 0 l 336 0 l 38 274 l 38 732 l 540 732 l 843 458 m 307 1039 l 650 1039 l 375 793 l 307 793 "},"È":{"ha":867,"x_min":0,"x_max":0,"o":"m 646 244 l 646 244 l 829 244 l 829 0 l 210 0 l 24 169 l 24 458 l 325 732 l 829 732 l 829 415 l 646 244 m 560 244 l 560 488 l 293 488 l 293 244 l 560 244 m 560 793 l 492 793 l 217 1039 l 560 1039 "},"À":{"ha":881,"x_min":0,"x_max":0,"o":"m 388 0 l 38 0 l 38 457 l 340 732 l 843 732 l 843 0 l 574 0 l 574 169 m 574 488 l 307 488 l 307 244 l 574 244 m 574 793 l 506 793 l 231 1039 l 574 1039 "},"Á":{"ha":881,"x_min":0,"x_max":0,"o":"m 388 0 l 38 0 l 38 457 l 340 732 l 843 732 l 843 0 l 574 0 l 574 169 m 574 488 l 307 488 l 307 244 l 574 244 m 339 1039 l 682 1039 l 407 793 l 339 793 "},"Ù":{"ha":881,"x_min":0,"x_max":0,"o":"m 574 793 l 506 793 l 231 1039 l 574 1039 m 843 732 l 574 732 l 574 244 l 307 244 l 307 732 l 38 732 l 38 0 l 386 0 l 574 171 l 574 0 l 843 0 "},"Ú":{"ha":881,"x_min":0,"x_max":0,"o":"m 307 1039 l 650 1039 l 375 793 l 307 793 m 843 0 l 574 0 l 574 171 l 386 0 l 38 0 l 38 732 l 307 732 l 307 244 l 574 244 l 574 732 l 843 732 "},"Ý":{"ha":881,"x_min":0,"x_max":0,"o":"m 307 1039 l 650 1039 l 375 793 l 307 793 m 574 171 l 388 0 l 38 0 l 38 732 l 307 732 l 307 244 l 574 244 l 574 244 l 574 732 l 843 732 l 843 -40 l 550 -307 l 307 -307 l 307 -61 l 574 -61 "},"à":{"ha":881,"x_min":0,"x_max":0,"o":"m 574 793 l 506 793 l 231 1039 l 574 1039 m 388 0 l 38 0 l 38 457 l 340 732 l 843 732 l 843 0 l 574 0 l 574 169 m 574 488 l 307 488 l 307 244 l 574 244 "},"á":{"ha":881,"x_min":0,"x_max":0,"o":"m 326 1039 l 669 1039 l 394 793 l 326 793 m 388 0 l 38 0 l 38 457 l 340 732 l 843 732 l 843 0 l 574 0 l 574 169 m 574 488 l 307 488 l 307 244 l 574 244 "},"é":{"ha":867,"x_min":0,"x_max":0,"o":"m 293 1039 l 636 1039 l 361 793 l 293 793 m 646 244 l 646 244 l 829 244 l 829 0 l 210 0 l 24 169 l 24 458 l 325 732 l 829 732 l 829 415 l 646 244 m 560 244 l 560 488 l 293 488 l 293 244 l 560 244 "},"ì":{"ha":344,"x_min":0,"x_max":0,"o":"m 307 0 l 38 0 l 38 732 l 307 732 m 307 793 l 239 793 l -36 1039 l 307 1039 "},"í":{"ha":344,"x_min":0,"x_max":0,"o":"m 307 0 l 38 0 l 38 732 l 307 732 m 38 1039 l 381 1039 l 106 793 l 38 793 "},"ò":{"ha":881,"x_min":0,"x_max":0,"o":"m 574 488 l 307 488 l 307 244 l 574 244 m 38 458 l 340 732 l 843 732 l 843 274 l 544 0 l 38 0 m 574 793 l 506 793 l 231 1039 l 574 1039 "},"ó":{"ha":881,"x_min":0,"x_max":0,"o":"m 574 488 l 307 488 l 307 244 l 574 244 m 38 458 l 340 732 l 843 732 l 843 274 l 544 0 l 38 0 m 340 1039 l 683 1039 l 408 793 l 340 793 "},"å":{"ha":881,"x_min":0,"x_max":0,"o":"m 465 918 l 414 918 l 414 867 l 465 867 m 246 943 l 389 1072 l 635 1072 l 635 857 l 531 761 l 246 761 m 388 0 l 38 0 l 38 457 l 340 732 l 843 732 l 843 0 l 574 0 l 574 169 m 574 488 l 307 488 l 307 244 l 574 244 "},"¸":{"ha":378,"x_min":0,"x_max":0,"o":"m 169 -112 l 169 110 l 371 -71 l 371 -307 l 7 -307 l 7 -112 "},"Å":{"ha":881,"x_min":0,"x_max":0,"o":"m 388 0 l 38 0 l 38 457 l 340 732 l 843 732 l 843 0 l 574 0 l 574 169 m 574 488 l 307 488 l 307 244 l 574 244 m 465 918 l 414 918 l 414 867 l 465 867 m 246 943 l 389 1072 l 635 1072 l 635 857 l 531 761 l 246 761 "},"¬":{"ha":703,"x_min":0,"x_max":0,"o":"m 665 594 l 665 138 l 425 138 l 425 367 l 38 367 l 38 594 "},"−":{"ha":582,"x_min":0,"x_max":0,"o":"m 544 481 l 544 253 l 38 253 l 38 481 "},"°":{"ha":474,"x_min":0,"x_max":0,"o":"m 276 831 l 196 831 l 196 757 l 276 757 m 38 975 l 436 975 l 436 613 l 38 613 "},"ø":{"ha":881,"x_min":0,"x_max":0,"o":"m 88 -208 l 190 0 l 38 0 l 38 458 l 340 732 l 444 732 l 597 1039 l 793 942 l 689 732 l 843 732 l 843 274 l 544 0 l 435 0 l 283 -307 m 574 488 l 307 488 l 307 244 l 574 244 "},"Ø":{"ha":881,"x_min":0,"x_max":0,"o":"m 88 -208 l 190 0 l 38 0 l 38 458 l 340 732 l 444 732 l 597 1039 l 793 942 l 689 732 l 843 732 l 843 274 l 544 0 l 435 0 l 283 -307 m 574 488 l 307 488 l 307 244 l 574 244 "},"þ":{"ha":881,"x_min":0,"x_max":0,"o":"m 38 -243 l 38 975 l 307 975 l 307 561 l 494 732 l 843 732 l 843 0 l 307 0 l 307 -243 m 307 244 l 574 244 l 574 488 l 307 488 "},"Þ":{"ha":881,"x_min":0,"x_max":0,"o":"m 38 -243 l 38 975 l 307 975 l 307 561 l 494 732 l 843 732 l 843 0 l 307 0 l 307 -243 m 307 244 l 574 244 l 574 488 l 307 488 "},"ё":{"ha":867,"x_min":0,"x_max":0,"o":"m 246 1072 l 421 913 l 246 754 l 71 913 m 607 1072 l 782 913 l 607 754 l 432 913 m 646 244 l 646 244 l 829 244 l 829 0 l 210 0 l 24 169 l 24 458 l 325 732 l 829 732 l 829 415 l 646 244 m 560 244 l 560 488 l 293 488 l 293 244 l 560 244 "},"Ѕ":{"ha":739,"x_min":0,"x_max":0,"o":"m 400 181 l -37 622 l 411 1039 l 611 857 l 344 610 l 776 171 l 282 -307 l 82 -126 "},"Ј":{"ha":344,"x_min":0,"x_max":0,"o":"m -290 -61 l 38 -61 l 38 732 l 307 732 l 307 -31 l 3 -307 l -290 -307 m 307 1039 l 307 793 l 38 793 l 38 1039 "},"і":{"ha":344,"x_min":0,"x_max":0,"o":"m 307 181 l 38 -65 l 38 732 l 307 732 m 307 793 l 38 793 l 38 1039 l 307 1039 "},"І":{"ha":344,"x_min":0,"x_max":0,"o":"m 307 0 l 38 0 l 38 732 l 307 732 m 307 793 l 38 793 l 38 1039 l 307 1039 "},"ј":{"ha":344,"x_min":0,"x_max":0,"o":"m -307 -61 l 38 -61 l 38 732 l 307 732 l 307 -31 l 3 -307 l -307 -307 m 307 1039 l 307 793 l 38 793 l 38 1039 "},"Ё":{"ha":867,"x_min":0,"x_max":0,"o":"m 246 1072 l 421 913 l 246 754 l 71 913 m 607 1072 l 782 913 l 607 754 l 432 913 m 646 244 l 646 244 l 829 244 l 829 0 l 210 0 l 24 169 l 24 458 l 325 732 l 829 732 l 829 415 l 646 244 m 560 244 l 560 488 l 293 488 l 293 244 l 560 244 "},"Ї":{"ha":344,"x_min":0,"x_max":0,"o":"m 307 0 l 38 0 l 38 732 l 307 732 m -8 1072 l 167 913 l -8 754 l -183 913 m 353 1072 l 528 913 l 353 754 l 178 913 "},"Ѓ":{"ha":857,"x_min":0,"x_max":0,"o":"m 574 488 l 307 488 l 307 0 l 38 0 l 38 458 l 339 732 l 843 732 l 843 415 l 575 175 m 339 1039 l 682 1039 l 407 793 l 339 793 "},"ѓ":{"ha":722,"x_min":0,"x_max":0,"o":"m 38 0 l 38 458 l 339 732 l 708 732 l 708 488 l 307 488 l 307 0 m 338 1039 l 681 1039 l 406 793 l 338 793 "},"Ш":{"ha":1317,"x_min":0,"x_max":0,"o":"m 307 244 l 524 244 l 524 732 l 793 732 l 793 244 l 1010 244 l 1010 732 l 1279 732 l 1279 0 l 340 0 l 38 274 l 38 732 l 307 732 "},"Щ":{"ha":1419,"x_min":0,"x_max":0,"o":"m 307 244 l 524 244 l 524 732 l 793 732 l 793 244 l 1010 244 l 1010 732 l 1279 732 l 1279 244 l 1406 244 l 1406 -243 l 1136 -243 l 1136 0 l 340 0 l 38 274 l 38 732 l 307 732 "},"Ъ":{"ha":947,"x_min":0,"x_max":0,"o":"m 397 469 l 550 610 l 933 610 l 933 275 l 633 0 l 128 0 l 128 488 l 24 488 l 24 732 l 397 732 m 397 426 l 397 242 l 665 242 l 665 426 "},"Ь":{"ha":881,"x_min":0,"x_max":0,"o":"m 307 469 l 460 610 l 843 610 l 843 275 l 543 0 l 38 0 l 38 732 l 307 732 m 307 426 l 307 244 l 550 244 l 550 426 "},"Ы":{"ha":1181,"x_min":0,"x_max":0,"o":"m 307 469 l 460 610 l 843 610 l 843 275 l 543 0 l 38 0 l 38 732 l 307 732 m 307 426 l 307 244 l 550 244 l 550 426 m 1143 0 l 874 0 l 874 732 l 1143 732 "},"З":{"ha":721,"x_min":0,"x_max":0,"o":"m 139 149 l 438 488 l 14 488 l 14 732 l 454 732 l 756 460 l 460 156 l 758 -165 l 567 -335 "},"#":{"ha":975,"x_min":0,"x_max":0,"o":"m 144 207 l 38 207 l 38 403 l 176 403 l 204 574 l 38 574 l 38 769 l 235 769 l 263 938 l 461 938 l 433 769 l 632 769 l 660 938 l 856 938 l 828 769 l 938 769 l 938 574 l 797 574 l 769 403 l 938 403 l 938 207 l 738 207 l 711 38 l 513 38 l 540 207 l 342 207 l 314 38 l 118 38 m 374 403 l 572 403 l 600 574 l 401 574 "},"є":{"ha":613,"x_min":0,"x_max":0,"o":"m 307 525 l 414 622 l 574 622 l 574 378 l 307 378 l 307 243 l 574 243 l 574 0 l 224 0 l 38 169 l 38 701 l 339 975 l 574 975 l 574 731 l 307 731 "},"Є":{"ha":611,"x_min":0,"x_max":0,"o":"m 307 525 l 414 622 l 574 622 l 574 378 l 307 378 l 307 243 l 574 243 l 574 0 l 224 0 l 38 169 l 38 701 l 339 975 l 574 975 l 574 731 l 307 731 "},"Э":{"ha":611,"x_min":0,"x_max":0,"o":"m 304 731 l 38 731 l 38 975 l 272 975 l 574 701 l 574 169 l 388 0 l 38 0 l 38 243 l 304 243 l 304 450 l 197 353 l 38 353 l 38 597 l 304 597 "},"\"":{"ha":501,"x_min":0,"x_max":0,"o":"m 213 732 l 7 732 l 7 1039 l 213 1039 m 494 732 l 289 732 l 289 1039 l 494 1039 "},"'":{"ha":219,"x_min":0,"x_max":0,"o":"m 213 732 l 7 732 l 7 1039 l 213 1039 "},"u":{"ha":881,"x_min":0,"x_max":0,"o":"m 843 0 l 574 0 l 574 171 l 386 0 l 38 0 l 38 732 l 307 732 l 307 244 l 574 244 l 574 732 l 843 732 "},"Ў":{"ha":881,"x_min":0,"x_max":0,"o":"m 574 -61 l 307 -61 l 307 -307 l 550 -307 l 843 -40 l 843 732 l 574 732 l 574 244 l 574 244 l 307 244 l 307 732 l 38 732 l 38 0 l 388 0 l 574 171 m 536 942 l 536 1039 l 725 1039 l 725 908 l 561 761 l 199 761 l 199 932 l 389 1103 l 389 942 "},"ў":{"ha":881,"x_min":0,"x_max":0,"o":"m 574 -61 l 307 -61 l 307 -307 l 550 -307 l 843 -40 l 843 732 l 574 732 l 574 244 l 574 244 l 307 244 l 307 732 l 38 732 l 38 0 l 388 0 l 574 171 m 515 942 l 515 1039 l 704 1039 l 704 908 l 540 761 l 178 761 l 178 932 l 368 1103 l 368 942 "},"И":{"ha":881,"x_min":0,"x_max":0,"o":"m 843 0 l 574 0 l 574 171 l 386 0 l 38 0 l 38 732 l 307 732 l 307 244 l 574 244 l 574 732 l 843 732 "},"Д":{"ha":881,"x_min":0,"x_max":0,"o":"m 388 0 l 38 0 l 38 457 l 339 732 l 843 732 l 843 -65 l 578 -307 l 307 -310 l 307 -68 l 574 -65 l 574 171 l 574 171 m 574 488 l 307 488 l 307 244 l 574 244 "},"ś":{"ha":672,"x_min":0,"x_max":0,"o":"m 340 1039 l 683 1039 l 408 793 l 340 793 m 307 365 l 635 365 l 635 32 l 332 -243 l 131 -243 l 131 0 l 365 0 l 365 122 l 38 122 l 38 458 l 339 732 l 635 732 l 635 488 l 307 488 "},"Ś":{"ha":672,"x_min":0,"x_max":0,"o":"m 340 1039 l 683 1039 l 408 793 l 340 793 m 307 365 l 635 365 l 635 32 l 332 -243 l 131 -243 l 131 0 l 365 0 l 365 122 l 38 122 l 38 458 l 339 732 l 635 732 l 635 488 l 307 488 "},"Ť":{"ha":833,"x_min":0,"x_max":0,"o":"m 14 490 l 281 490 l 281 0 l 549 0 l 549 490 l 819 490 l 819 732 l 14 732 m 524 793 l 313 793 l 132 951 l 281 1086 l 419 960 l 507 1039 l 800 1039 "},"Ź":{"ha":864,"x_min":0,"x_max":0,"o":"m 499 244 l 826 244 l 826 0 l 7 0 l 399 488 l 38 488 l 38 732 l 826 732 l 826 610 m 346 1039 l 689 1039 l 414 793 l 346 793 "},"ź":{"ha":721,"x_min":0,"x_max":0,"o":"m 139 149 l 438 488 l 14 488 l 14 732 l 454 732 l 756 460 l 460 156 l 758 -165 l 567 -335 m 283 1039 l 626 1039 l 351 793 l 283 793 "}," ":{"ha":417,"x_min":0,"x_max":0,"o":""},"ť":{"ha":772,"x_min":0,"x_max":0,"o":"m 499 975 l 499 732 l 735 732 l 735 488 l 499 488 l 499 244 l 735 244 l 735 0 l 232 0 l 232 488 l -37 488 l 232 732 l 232 975 m 529 1039 l 872 1039 l 597 793 l 529 793 "},"Ą":{"ha":881,"x_min":0,"x_max":0,"o":"m 388 0 l 38 0 l 38 457 l 340 732 l 843 732 l 843 0 l 574 0 l 574 169 m 574 488 l 307 488 l 307 244 l 574 244 m 669 -112 l 669 -307 l 306 -307 l 306 -71 l 507 110 l 507 -112 "},"Ż":{"ha":864,"x_min":0,"x_max":0,"o":"m 499 244 l 826 244 l 826 0 l 7 0 l 399 488 l 38 488 l 38 732 l 826 732 l 826 610 m 432 1089 l 626 913 l 432 736 l 238 913 "},"ą":{"ha":881,"x_min":0,"x_max":0,"o":"m 388 0 l 38 0 l 38 457 l 340 732 l 843 732 l 843 0 l 574 0 l 574 169 m 574 488 l 307 488 l 307 244 l 574 244 m 669 -112 l 669 -307 l 306 -307 l 306 -71 l 507 110 l 507 -112 "},"ż":{"ha":721,"x_min":0,"x_max":0,"o":"m 567 -335 l 758 -165 l 460 156 l 756 460 l 454 732 l 14 732 l 14 488 l 438 488 l 139 149 m 371 1089 l 565 913 l 371 736 l 176 913 "},"Ŕ":{"ha":788,"x_min":0,"x_max":0,"o":"m 496 793 l 428 793 l 153 1039 l 496 1039 m 308 614 l 308 732 l 38 732 l 38 0 l 308 0 l 308 488 l 496 488 l 496 246 l 774 497 l 774 732 l 440 732 "},"Ă":{"ha":881,"x_min":0,"x_max":0,"o":"m 388 0 l 38 0 l 38 457 l 340 732 l 843 732 l 843 0 l 574 0 l 574 169 m 574 488 l 307 488 l 307 244 l 574 244 m 388 0 l 38 0 l 38 457 l 340 732 l 843 732 l 843 0 l 574 0 l 574 169 m 574 488 l 307 488 l 307 244 l 574 244 m 515 942 l 515 1039 l 704 1039 l 704 908 l 540 761 l 178 761 l 178 932 l 368 1103 l 368 942 "},"Ć":{"ha":781,"x_min":0,"x_max":0,"o":"m 38 457 l 339 732 l 743 732 l 743 488 l 307 488 l 307 244 l 743 244 l 743 0 l 38 0 m 540 793 l 472 793 l 197 1039 l 540 1039 "},"Č":{"ha":781,"x_min":0,"x_max":0,"o":"m 38 457 l 339 732 l 743 732 l 743 488 l 307 488 l 307 244 l 743 244 l 743 0 l 38 0 m 517 793 l 306 793 l 125 951 l 274 1086 l 413 960 l 500 1039 l 793 1039 "},"Ç":{"ha":781,"x_min":0,"x_max":0,"o":"m 38 457 l 339 732 l 743 732 l 743 488 l 307 488 l 307 244 l 743 244 l 743 0 l 38 0 m 371 -112 l 371 110 l 572 -71 l 572 -307 l 208 -307 l 208 -112 "},"É":{"ha":867,"x_min":0,"x_max":0,"o":"m 646 244 l 646 244 l 829 244 l 829 0 l 210 0 l 24 169 l 24 458 l 325 732 l 829 732 l 829 415 l 646 244 m 560 244 l 560 488 l 293 488 l 293 244 l 560 244 m 311 1039 l 654 1039 l 379 793 l 311 793 "},"Ę":{"ha":867,"x_min":0,"x_max":0,"o":"m 646 244 l 646 244 l 829 244 l 829 0 l 210 0 l 24 169 l 24 458 l 325 732 l 829 732 l 829 415 l 646 244 m 560 244 l 560 488 l 293 488 l 293 244 l 560 244 m 657 -112 l 657 -307 l 293 -307 l 293 -71 l 494 110 l 494 -112 "},"Ë":{"ha":867,"x_min":0,"x_max":0,"o":"m 646 244 l 646 244 l 829 244 l 829 0 l 210 0 l 24 169 l 24 458 l 325 732 l 829 732 l 829 415 l 646 244 m 560 244 l 560 488 l 293 488 l 293 244 l 560 244 m 264 1072 l 439 913 l 264 754 l 89 913 m 625 1072 l 800 913 l 625 754 l 450 913 "},"Ě":{"ha":867,"x_min":0,"x_max":0,"o":"m 646 244 l 646 244 l 829 244 l 829 0 l 210 0 l 24 169 l 24 458 l 325 732 l 829 732 l 829 415 l 646 244 m 560 244 l 560 488 l 293 488 l 293 244 l 560 244 m 517 793 l 306 793 l 125 951 l 274 1086 l 413 960 l 500 1039 l 793 1039 "},"Ď":{"ha":881,"x_min":0,"x_max":0,"o":"m 540 1071 l 544 1071 l 544 793 l 311 793 l 131 951 l 279 1086 l 418 960 m 574 975 l 843 975 l 843 0 l 225 0 l 38 169 l 38 732 l 388 732 l 574 560 m 307 488 l 307 244 l 574 244 l 574 488 "},"Ń":{"ha":881,"x_min":0,"x_max":0,"o":"m 38 732 l 307 732 l 307 561 l 494 732 l 843 732 l 843 0 l 574 0 l 574 488 l 307 488 l 307 0 l 38 0 m 307 1039 l 650 1039 l 375 793 l 307 793 "},"Ň":{"ha":881,"x_min":0,"x_max":0,"o":"m 38 0 l 307 0 l 307 488 l 574 488 l 574 0 l 843 0 l 843 732 l 494 732 l 307 561 l 307 732 l 38 732 m 551 793 l 340 793 l 160 951 l 308 1086 l 447 960 l 535 1039 l 828 1039 "},"ç":{"ha":781,"x_min":0,"x_max":0,"o":"m 38 457 l 339 732 l 743 732 l 743 488 l 307 488 l 307 244 l 743 244 l 743 0 l 38 0 m 371 -112 l 371 110 l 572 -71 l 572 -307 l 208 -307 l 208 -112 "},"è":{"ha":867,"x_min":0,"x_max":0,"o":"m 646 244 l 646 244 l 829 244 l 829 0 l 210 0 l 24 169 l 24 458 l 325 732 l 829 732 l 829 415 l 646 244 m 560 244 l 560 488 l 293 488 l 293 244 l 560 244 m 560 793 l 492 793 l 217 1039 l 560 1039 "},"ë":{"ha":867,"x_min":0,"x_max":0,"o":"m 646 244 l 646 244 l 829 244 l 829 0 l 210 0 l 24 169 l 24 458 l 325 732 l 829 732 l 829 415 l 646 244 m 560 244 l 560 488 l 293 488 l 293 244 l 560 244 m 264 1072 l 439 913 l 264 754 l 89 913 m 625 1072 l 800 913 l 625 754 l 450 913 "},"ñ":{"ha":881,"x_min":0,"x_max":0,"o":"m 38 0 l 307 0 l 307 488 l 574 488 l 574 0 l 843 0 l 843 732 l 494 732 l 307 561 l 307 732 l 38 732 m 638 746 l 535 839 l 483 793 l 175 793 l 86 871 l 242 1011 l 346 918 l 549 1100 l 794 888 "},"ù":{"ha":881,"x_min":0,"x_max":0,"o":"m 843 732 l 574 732 l 574 244 l 307 244 l 307 732 l 38 732 l 38 0 l 386 0 l 574 171 l 574 0 l 843 0 m 574 793 l 506 793 l 231 1039 l 574 1039 "},"ú":{"ha":881,"x_min":0,"x_max":0,"o":"m 843 0 l 574 0 l 574 171 l 386 0 l 38 0 l 38 732 l 307 732 l 307 244 l 574 244 l 574 732 l 843 732 m 307 1039 l 650 1039 l 375 793 l 307 793 "},"û":{"ha":881,"x_min":0,"x_max":0,"o":"m 843 732 l 574 732 l 574 244 l 307 244 l 307 732 l 38 732 l 38 0 l 386 0 l 574 171 l 574 0 l 843 0 m 383 1039 l 594 1039 l 775 881 l 626 746 l 488 872 l 400 793 l 107 793 "},"ü":{"ha":881,"x_min":0,"x_max":0,"o":"m 843 732 l 574 732 l 574 244 l 307 244 l 307 732 l 38 732 l 38 0 l 386 0 l 574 171 l 574 0 l 843 0 m 260 1072 l 435 913 l 260 754 l 85 913 m 621 1072 l 796 913 l 621 754 l 446 913 "},"ý":{"ha":881,"x_min":0,"x_max":0,"o":"m 574 171 l 388 0 l 38 0 l 38 732 l 307 732 l 307 244 l 574 244 l 574 244 l 574 732 l 843 732 l 843 -40 l 550 -307 l 307 -307 l 307 -61 l 574 -61 m 307 1039 l 650 1039 l 375 793 l 307 793 "},"ÿ":{"ha":881,"x_min":0,"x_max":0,"o":"m 574 -61 l 307 -61 l 307 -307 l 550 -307 l 843 -40 l 843 732 l 574 732 l 574 244 l 574 244 l 307 244 l 307 732 l 38 732 l 38 0 l 388 0 l 574 171 m 260 1072 l 435 913 l 260 754 l 85 913 m 621 1072 l 796 913 l 621 754 l 446 913 "},"‰":{"ha":1583,"x_min":0,"x_max":0,"o":"m 1113 339 l 1276 488 l 1546 488 l 1546 240 l 1386 93 l 1113 93 m 1383 339 l 1275 339 l 1275 240 l 1383 240 m 926 975 l 442 1 l 197 1 l 682 975 m 38 729 l 201 878 l 471 878 l 471 631 l 311 483 l 38 483 m 308 729 l 200 729 l 200 631 l 308 631 m 649 339 l 813 488 l 1082 488 l 1082 240 l 922 93 l 649 93 m 919 339 l 811 339 l 811 240 l 919 240 "},"~":{"ha":886,"x_min":0,"x_max":0,"o":"m 560 315 l 310 89 l 7 356 l 178 550 l 326 415 l 576 643 l 879 376 l 708 182 "},"Ќ":{"ha":846,"x_min":0,"x_max":0,"o":"m 338 1039 l 681 1039 l 406 793 l 338 793 m 307 264 l 307 0 l 38 0 l 38 975 l 307 975 l 307 469 l 540 732 l 883 732 l 546 382 l 883 0 l 689 -168 "},"ќ":{"ha":846,"x_min":0,"x_max":0,"o":"m 307 1039 l 650 1039 l 375 793 l 307 793 m 307 264 l 307 0 l 38 0 l 38 732 l 307 732 l 307 469 l 540 732 l 883 732 l 546 382 l 883 0 l 689 -168 "},"ї":{"ha":344,"x_min":0,"x_max":0,"o":"m 307 0 l 38 0 l 38 732 l 307 732 m -8 1072 l 167 913 l -8 754 l -183 913 m 353 1072 l 528 913 l 353 754 l 178 913 "},"ѕ":{"ha":672,"x_min":0,"x_max":0,"o":"m 307 365 l 635 365 l 635 32 l 332 -243 l 131 -243 l 131 0 l 365 0 l 365 122 l 38 122 l 38 458 l 339 732 l 635 732 l 635 488 l 307 488 "},"ć":{"ha":781,"x_min":0,"x_max":0,"o":"m 38 457 l 339 732 l 743 732 l 743 488 l 307 488 l 307 244 l 743 244 l 743 0 l 38 0 m 307 1039 l 650 1039 l 375 793 l 307 793 "},"č":{"ha":781,"x_min":0,"x_max":0,"o":"m 38 457 l 339 732 l 743 732 l 743 488 l 307 488 l 307 244 l 743 244 l 743 0 l 38 0 m 517 793 l 306 793 l 125 951 l 274 1086 l 413 960 l 500 1039 l 793 1039 "},"ę":{"ha":867,"x_min":0,"x_max":0,"o":"m 646 244 l 646 244 l 829 244 l 829 0 l 210 0 l 24 169 l 24 458 l 325 732 l 829 732 l 829 415 l 646 244 m 560 244 l 560 488 l 293 488 l 293 244 l 560 244 m 657 -112 l 657 -307 l 293 -307 l 293 -71 l 494 110 l 494 -112 "},"ě":{"ha":867,"x_min":0,"x_max":0,"o":"m 646 244 l 646 244 l 829 244 l 829 0 l 210 0 l 24 169 l 24 458 l 325 732 l 829 732 l 829 415 l 646 244 m 560 244 l 560 488 l 293 488 l 293 244 l 560 244 m 517 793 l 306 793 l 125 951 l 274 1086 l 413 960 l 500 1039 l 793 1039 "},"ń":{"ha":881,"x_min":0,"x_max":0,"o":"m 38 732 l 307 732 l 307 561 l 494 732 l 843 732 l 843 0 l 574 0 l 574 488 l 307 488 l 307 0 l 38 0 m 307 1039 l 650 1039 l 375 793 l 307 793 "},"ň":{"ha":881,"x_min":0,"x_max":0,"o":"m 38 0 l 307 0 l 307 488 l 574 488 l 574 0 l 843 0 l 843 732 l 494 732 l 307 561 l 307 732 l 38 732 m 551 793 l 340 793 l 160 951 l 308 1086 l 447 960 l 535 1039 l 828 1039 "},"ő":{"ha":881,"x_min":0,"x_max":0,"o":"m 574 488 l 307 488 l 307 244 l 574 244 m 38 458 l 340 732 l 843 732 l 843 274 l 544 0 l 38 0 m 528 1039 l 361 793 l 103 793 l 269 1039 m 890 1039 l 724 793 l 465 793 l 632 1039 "},"Ő":{"ha":881,"x_min":0,"x_max":0,"o":"m 307 488 l 574 488 l 574 244 l 307 244 m 843 458 l 540 732 l 38 732 l 38 274 l 336 0 l 843 0 m 526 1039 l 360 793 l 101 793 l 268 1039 m 889 1039 l 722 793 l 464 793 l 631 1039 "},"ď":{"ha":881,"x_min":0,"x_max":0,"o":"m 540 1071 l 544 1071 l 544 793 l 311 793 l 131 951 l 279 1086 l 418 960 m 843 975 l 843 274 l 544 0 l 38 0 l 38 458 l 340 732 l 574 732 l 574 975 m 574 488 l 307 488 l 307 244 l 574 244 "},"Ř":{"ha":793,"x_min":0,"x_max":0,"o":"m 503 793 l 292 793 l 111 951 l 260 1086 l 399 960 l 486 1039 l 779 1039 m 308 614 l 308 732 l 38 732 l 38 0 l 308 0 l 308 488 l 496 488 l 496 246 l 774 497 l 774 732 l 440 732 "},"Ů":{"ha":881,"x_min":0,"x_max":0,"o":"m 843 732 l 574 732 l 574 244 l 307 244 l 307 732 l 38 732 l 38 0 l 386 0 l 574 171 l 574 0 l 843 0 m 465 918 l 414 918 l 414 867 l 465 867 m 246 943 l 389 1072 l 635 1072 l 635 857 l 531 761 l 246 761 "},"Ű":{"ha":881,"x_min":0,"x_max":0,"o":"m 843 732 l 574 732 l 574 244 l 307 244 l 307 732 l 38 732 l 38 0 l 386 0 l 574 171 l 574 0 l 843 0 m 513 1039 l 346 793 l 88 793 l 254 1039 m 875 1039 l 708 793 l 450 793 l 617 1039 "},"ă":{"ha":881,"x_min":0,"x_max":0,"o":"m 388 0 l 38 0 l 38 457 l 340 732 l 843 732 l 843 0 l 574 0 l 574 169 m 574 488 l 307 488 l 307 244 l 574 244 m 515 942 l 515 1039 l 704 1039 l 704 908 l 540 761 l 178 761 l 178 932 l 368 1103 l 368 942 "},"ř":{"ha":881,"x_min":0,"x_max":0,"o":"m 653 122 l 843 292 l 843 732 l 339 732 l 38 457 l 38 0 l 306 0 l 306 146 l 735 -336 l 926 -165 m 574 244 l 307 244 l 307 488 l 574 488 m 531 793 l 319 793 l 139 951 l 288 1086 l 426 960 l 514 1039 l 807 1039 "},"ů":{"ha":881,"x_min":0,"x_max":0,"o":"m 843 732 l 574 732 l 574 244 l 307 244 l 307 732 l 38 732 l 38 0 l 386 0 l 574 171 l 574 0 l 843 0 m 465 918 l 414 918 l 414 867 l 465 867 m 246 943 l 389 1072 l 635 1072 l 635 857 l 531 761 l 246 761 "},"ű":{"ha":881,"x_min":0,"x_max":0,"o":"m 843 732 l 574 732 l 574 244 l 307 244 l 307 732 l 38 732 l 38 0 l 386 0 l 574 171 l 574 0 l 843 0 m 513 1039 l 346 793 l 88 793 l 254 1039 m 875 1039 l 708 793 l 450 793 l 617 1039 "},"ŕ":{"ha":881,"x_min":0,"x_max":0,"o":"m 653 122 l 843 292 l 843 732 l 339 732 l 38 457 l 38 0 l 306 0 l 306 146 l 735 -336 l 926 -165 m 574 244 l 307 244 l 307 488 l 574 488 m 574 793 l 506 793 l 231 1039 l 574 1039 "},"ğ":{"ha":881,"x_min":0,"x_max":0,"o":"m 574 171 l 574 171 l 574 -65 l 307 -68 l 307 -310 l 578 -307 l 843 -65 l 843 732 l 339 732 l 38 457 l 38 0 l 388 0 l 574 171 m 574 244 l 307 244 l 307 488 l 574 488 l 574 244 m 515 942 l 515 1039 l 704 1039 l 704 908 l 540 761 l 178 761 l 178 932 l 368 1103 l 368 942 "},"*":{"ha":715,"x_min":0,"x_max":0,"o":"m 639 853 l 708 636 l 531 585 l 646 442 l 461 307 l 358 461 l 256 308 l 72 442 l 183 588 l 7 638 l 79 854 l 251 793 l 244 975 l 474 975 l 468 790 "},"R":{"ha":788,"x_min":0,"x_max":0,"o":"m 440 732 l 774 732 l 774 497 l 496 246 l 496 488 l 308 488 l 308 0 l 38 0 l 38 732 l 308 732 l 308 614 "},"İ":{"ha":344,"x_min":0,"x_max":0,"o":"m 307 0 l 38 0 l 38 732 l 307 732 m 172 1072 l 347 913 l 172 754 l -3 913 "},"Ğ":{"ha":881,"x_min":0,"x_max":0,"o":"m 574 171 l 574 171 l 574 -65 l 307 -68 l 307 -310 l 578 -307 l 843 -65 l 843 732 l 339 732 l 38 457 l 38 0 l 388 0 l 574 171 m 574 244 l 307 244 l 307 488 l 574 488 l 574 244 m 515 942 l 515 1039 l 704 1039 l 704 908 l 540 761 l 178 761 l 178 932 l 368 1103 l 368 942 "},"ª":{"ha":679,"x_min":0,"x_max":0,"o":"m 300 426 l 38 426 l 38 769 l 265 975 l 642 975 l 642 426 l 440 426 l 440 553 m 440 792 l 240 792 l 240 610 l 440 610 "},"º":{"ha":679,"x_min":0,"x_max":0,"o":"m 440 792 l 240 792 l 240 610 l 440 610 m 38 769 l 265 975 l 642 975 l 642 632 l 418 426 l 38 426 "},"ľ":{"ha":608,"x_min":0,"x_max":0,"o":"m 307 975 l 307 0 l 38 0 l 38 975 m 307 733 l 431 1039 l 689 1039 l 565 733 "},"Ĺ":{"ha":588,"x_min":0,"x_max":0,"o":"m 307 975 l 307 244 l 574 244 l 574 0 l 38 0 l 38 975 m 338 1039 l 681 1039 l 406 793 l 338 793 "},"Ţ":{"ha":833,"x_min":0,"x_max":0,"o":"m 14 732 l 819 732 l 819 490 l 549 490 l 549 0 l 281 0 l 281 490 l 14 490 m 165 -308 l 289 -33 l 547 -33 l 424 -308 "},"ĺ":{"ha":344,"x_min":0,"x_max":0,"o":"m 307 975 l 307 0 l 38 0 l 38 975 m 338 1039 l 681 1039 l 406 793 l 338 793 "},"ţ":{"ha":772,"x_min":0,"x_max":0,"o":"m 499 975 l 499 732 l 735 732 l 735 488 l 499 488 l 499 244 l 735 244 l 735 0 l 232 0 l 232 488 l -37 488 l 232 732 l 232 975 m 189 -308 l 313 -33 l 571 -33 l 447 -308 "},"đ":{"ha":881,"x_min":0,"x_max":0,"o":"m 843 975 l 843 857 l 968 857 l 968 696 l 843 696 l 843 274 l 544 0 l 38 0 l 38 458 l 340 732 l 574 732 l 574 975 m 574 488 l 307 488 l 307 244 l 574 244 "},"Đ":{"ha":881,"x_min":0,"x_max":0,"o":"m 574 975 l 843 975 l 843 857 l 968 857 l 968 696 l 843 696 l 843 0 l 225 0 l 38 169 l 38 732 l 433 732 l 574 603 m 307 488 l 307 244 l 574 244 l 574 488 "},"Ľ":{"ha":588,"x_min":0,"x_max":0,"o":"m 307 975 l 307 244 l 574 244 l 574 0 l 38 0 l 38 975 m 307 733 l 431 1039 l 689 1039 l 565 733 "},"Ð":{"ha":881,"x_min":0,"x_max":0,"o":"m 574 975 l 843 975 l 843 857 l 968 857 l 968 696 l 843 696 l 843 0 l 225 0 l 38 169 l 38 732 l 433 732 l 574 603 m 307 488 l 307 244 l 574 244 l 574 488 "},"ð":{"ha":881,"x_min":0,"x_max":0,"o":"m 843 975 l 843 857 l 968 857 l 968 696 l 843 696 l 843 274 l 544 0 l 38 0 l 38 458 l 340 732 l 574 732 l 574 975 m 574 488 l 307 488 l 307 244 l 574 244 "},"?":{"ha":718,"x_min":0,"x_max":0,"o":"m 482 0 l 482 244 l 213 244 l 213 0 m 756 767 l 349 254 l 156 410 l 467 794 l 268 794 l 278 624 l 14 624 l 14 1039 l 456 1039 "},"J":{"ha":344,"x_min":0,"x_max":0,"o":"m -307 -61 l 38 -61 l 38 732 l 307 732 l 307 -31 l 3 -307 l -307 -307 m 307 1039 l 307 793 l 38 793 l 38 1039 "},"¶":{"ha":713,"x_min":0,"x_max":0,"o":"m 38 976 l 675 975 l 675 -61 l 406 -61 l 406 732 l 340 732 l 340 244 l 222 244 l 38 413 "},"s":{"ha":672,"x_min":0,"x_max":0,"o":"m 307 365 l 635 365 l 635 32 l 332 -243 l 131 -243 l 131 0 l 365 0 l 365 122 l 38 122 l 38 458 l 339 732 l 635 732 l 635 488 l 307 488 "},"™":{"ha":1353,"x_min":0,"x_max":0,"o":"m 38 710 l 171 710 l 171 442 l 465 442 l 465 575 l 317 575 l 317 710 l 465 710 l 465 842 l 317 842 l 317 975 l 1069 975 l 1315 750 l 1315 308 l 38 308 m 503 442 l 650 442 l 650 710 l 771 710 l 771 442 l 914 442 l 914 710 l 1036 710 l 1036 442 l 1182 442 l 1182 842 l 1021 842 l 914 750 l 914 842 l 753 842 l 650 750 l 650 842 l 503 842 m 171 842 l 38 721 l 38 975 l 171 975 "},"!":{"ha":344,"x_min":0,"x_max":0,"o":"m 307 306 l 38 306 l 38 1039 l 307 1039 m 307 0 l 307 244 l 38 244 l 38 0 "},"S":{"ha":724,"x_min":0,"x_max":0,"o":"m 403 1039 l 601 858 l 328 603 l 761 168 l 321 -242 l 122 -61 l 396 194 l -37 629 "}}}
